<svg xmlns="http://www.w3.org/2000/svg" viewBox="0 0 1167.5 928" font-family="Helvetica, Arial, sans-serif" font-size="11">
<rect x="0" y="0" width="1167.5" height="928" fill="#FFFFFF"/>
<text x="583.75" y="20" font-size="13" font-weight="bold" text-anchor="middle" fill="#1E2A32">Tesla Human (MBA) — reliability anchor</text>
<text x="583.75" y="34" font-size="10" text-anchor="middle" fill="#6B7280">Critical reasoning chains (top 5 chains, ≥3 deep). Edges shown: S/W/J (reasoning); E (elaboration) omitted per chain definition.</text>
<g transform="translate(0, 36)">
<path d="M 425.0 192.0 L 425.0 222.0 L 425.0 252.0" fill="none" stroke="#9CA3AF" stroke-width="1.2"/>
<polygon points="0,-4 8,0 0,4" fill="#9CA3AF" transform="translate(425.0,252.0) rotate(90.0)"/>
<rect x="418.0" y="215.0" width="14" height="14" rx="3" fill="#FFFFFF" stroke="#9CA3AF" stroke-width="0.5"/>
<text x="425.0" y="225.0" text-anchor="middle" font-size="9" font-weight="bold" fill="#6B7280">S</text>
<path d="M 475.7 308.0 L 530.0 338.0 L 530.0 368.0" fill="none" stroke="#9CA3AF" stroke-width="1.2"/>
<polygon points="0,-4 8,0 0,4" fill="#9CA3AF" transform="translate(530.0,368.0) rotate(90.0)"/>
<rect x="523.0" y="331.0" width="14" height="14" rx="3" fill="#FFFFFF" stroke="#9CA3AF" stroke-width="0.5"/>
<text x="530.0" y="341.0" text-anchor="middle" font-size="9" font-weight="bold" fill="#6B7280">S</text>
<path d="M 530.0 424.0 L 530.0 454.0 L 530.0 484.0" fill="none" stroke="#9CA3AF" stroke-width="1.2"/>
<polygon points="0,-4 8,0 0,4" fill="#9CA3AF" transform="translate(530.0,484.0) rotate(90.0)"/>
<rect x="523.0" y="447.0" width="14" height="14" rx="3" fill="#FFFFFF" stroke="#9CA3AF" stroke-width="0.5"/>
<text x="530.0" y="457.0" text-anchor="middle" font-size="9" font-weight="bold" fill="#6B7280">S</text>
<path d="M 1017.5 424.0 L 1017.5 454.0 L 1017.5 484.0" fill="none" stroke="#9CA3AF" stroke-width="1.2"/>
<polygon points="0,-4 8,0 0,4" fill="#9CA3AF" transform="translate(1017.5,484.0) rotate(90.0)"/>
<rect x="1010.5" y="447.0" width="14" height="14" rx="3" fill="#FFFFFF" stroke="#9CA3AF" stroke-width="0.5"/>
<text x="1017.5" y="457.0" text-anchor="middle" font-size="9" font-weight="bold" fill="#6B7280">S</text>
<path d="M 902.5 192.0 L 902.5 222.0 L 902.5 252.0" fill="none" stroke="#9CA3AF" stroke-width="1.2"/>
<polygon points="0,-4 8,0 0,4" fill="#9CA3AF" transform="translate(902.5,252.0) rotate(90.0)"/>
<rect x="895.5" y="215.0" width="14" height="14" rx="3" fill="#FFFFFF" stroke="#9CA3AF" stroke-width="0.5"/>
<text x="902.5" y="225.0" text-anchor="middle" font-size="9" font-weight="bold" fill="#6B7280">S</text>
<path d="M 902.5 76.0 L 902.5 106.0 L 902.5 136.0" fill="none" stroke="#9CA3AF" stroke-width="1.2"/>
<polygon points="0,-4 8,0 0,4" fill="#9CA3AF" transform="translate(902.5,136.0) rotate(90.0)"/>
<rect x="895.5" y="99.0" width="14" height="14" rx="3" fill="#FFFFFF" stroke="#9CA3AF" stroke-width="0.5"/>
<text x="902.5" y="109.0" text-anchor="middle" font-size="9" font-weight="bold" fill="#6B7280">S</text>
<path d="M 958.0 308.0 L 1017.5 338.0 L 1017.5 368.0" fill="none" stroke="#9CA3AF" stroke-width="1.2"/>
<polygon points="0,-4 8,0 0,4" fill="#9CA3AF" transform="translate(1017.5,368.0) rotate(90.0)"/>
<rect x="1010.5" y="331.0" width="14" height="14" rx="3" fill="#FFFFFF" stroke="#9CA3AF" stroke-width="0.5"/>
<text x="1017.5" y="341.0" text-anchor="middle" font-size="9" font-weight="bold" fill="#6B7280">S</text>
<path d="M 851.8 308.0 L 797.5 338.0 L 797.5 368.0" fill="none" stroke="#9CA3AF" stroke-width="1.2"/>
<polygon points="0,-4 8,0 0,4" fill="#9CA3AF" transform="translate(797.5,368.0) rotate(90.0)"/>
<rect x="790.5" y="331.0" width="14" height="14" rx="3" fill="#FFFFFF" stroke="#9CA3AF" stroke-width="0.5"/>
<text x="797.5" y="341.0" text-anchor="middle" font-size="9" font-weight="bold" fill="#6B7280">S</text>
<path d="M 825.3 424.0 L 855.0 454.0 L 855.0 512.0 L 855.0 570.0 L 825.3 600.0" fill="none" stroke="#9CA3AF" stroke-width="1.2"/>
<polygon points="0,-4 8,0 0,4" fill="#9CA3AF" transform="translate(825.3,600.0) rotate(134.8)"/>
<rect x="848.0" y="505.0" width="14" height="14" rx="3" fill="#FFFFFF" stroke="#9CA3AF" stroke-width="0.5"/>
<text x="855.0" y="515.0" text-anchor="middle" font-size="9" font-weight="bold" fill="#6B7280">J</text>
<path d="M 769.7 424.0 L 740.0 454.0 L 740.0 484.0" fill="none" stroke="#9CA3AF" stroke-width="1.2"/>
<polygon points="0,-4 8,0 0,4" fill="#9CA3AF" transform="translate(740.0,484.0) rotate(90.0)"/>
<rect x="733.0" y="447.0" width="14" height="14" rx="3" fill="#FFFFFF" stroke="#9CA3AF" stroke-width="0.5"/>
<text x="740.0" y="457.0" text-anchor="middle" font-size="9" font-weight="bold" fill="#6B7280">J</text>
<path d="M 425.0 76.0 L 425.0 106.0 L 425.0 136.0" fill="none" stroke="#9CA3AF" stroke-width="1.2"/>
<polygon points="0,-4 8,0 0,4" fill="#9CA3AF" transform="translate(425.0,136.0) rotate(90.0)"/>
<rect x="418.0" y="99.0" width="14" height="14" rx="3" fill="#FFFFFF" stroke="#9CA3AF" stroke-width="0.5"/>
<text x="425.0" y="109.0" text-anchor="middle" font-size="9" font-weight="bold" fill="#6B7280">S</text>
<path d="M 110.0 76.0 L 110.0 106.0 L 110.0 136.0" fill="none" stroke="#9CA3AF" stroke-width="1.2"/>
<polygon points="0,-4 8,0 0,4" fill="#9CA3AF" transform="translate(110.0,136.0) rotate(90.0)"/>
<rect x="103.0" y="99.0" width="14" height="14" rx="3" fill="#FFFFFF" stroke="#9CA3AF" stroke-width="0.5"/>
<text x="110.0" y="109.0" text-anchor="middle" font-size="9" font-weight="bold" fill="#6B7280">S</text>
<path d="M 110.0 192.0 L 110.0 222.0 L 110.0 252.0" fill="none" stroke="#9CA3AF" stroke-width="1.2"/>
<polygon points="0,-4 8,0 0,4" fill="#9CA3AF" transform="translate(110.0,252.0) rotate(90.0)"/>
<rect x="103.0" y="215.0" width="14" height="14" rx="3" fill="#FFFFFF" stroke="#9CA3AF" stroke-width="0.5"/>
<text x="110.0" y="225.0" text-anchor="middle" font-size="9" font-weight="bold" fill="#6B7280">S</text>
<path d="M 110.0 308.0 L 110.0 338.0 L 110.0 368.0" fill="none" stroke="#9CA3AF" stroke-width="1.2"/>
<polygon points="0,-4 8,0 0,4" fill="#9CA3AF" transform="translate(110.0,368.0) rotate(90.0)"/>
<rect x="103.0" y="331.0" width="14" height="14" rx="3" fill="#FFFFFF" stroke="#9CA3AF" stroke-width="0.5"/>
<text x="110.0" y="341.0" text-anchor="middle" font-size="9" font-weight="bold" fill="#6B7280">J</text>
<path d="M 110.0 424.0 L 110.0 454.0 L 110.0 484.0" fill="none" stroke="#9CA3AF" stroke-width="1.2"/>
<polygon points="0,-4 8,0 0,4" fill="#9CA3AF" transform="translate(110.0,484.0) rotate(90.0)"/>
<rect x="103.0" y="447.0" width="14" height="14" rx="3" fill="#FFFFFF" stroke="#9CA3AF" stroke-width="0.5"/>
<text x="110.0" y="457.0" text-anchor="middle" font-size="9" font-weight="bold" fill="#6B7280">J</text>
<path d="M 320.0 424.0 L 320.0 454.0 L 320.0 484.0" fill="none" stroke="#9CA3AF" stroke-width="1.2"/>
<polygon points="0,-4 8,0 0,4" fill="#9CA3AF" transform="translate(320.0,484.0) rotate(90.0)"/>
<rect x="313.0" y="447.0" width="14" height="14" rx="3" fill="#FFFFFF" stroke="#9CA3AF" stroke-width="0.5"/>
<text x="320.0" y="457.0" text-anchor="middle" font-size="9" font-weight="bold" fill="#6B7280">S</text>
<path d="M 374.3 308.0 L 320.0 338.0 L 320.0 368.0" fill="none" stroke="#9CA3AF" stroke-width="1.2"/>
<polygon points="0,-4 8,0 0,4" fill="#9CA3AF" transform="translate(320.0,368.0) rotate(90.0)"/>
<rect x="313.0" y="331.0" width="14" height="14" rx="3" fill="#FFFFFF" stroke="#9CA3AF" stroke-width="0.5"/>
<text x="320.0" y="341.0" text-anchor="middle" font-size="9" font-weight="bold" fill="#6B7280">S</text>
<path d="M 740.0 540.0 L 740.0 570.0 L 769.7 600.0" fill="none" stroke="#9CA3AF" stroke-width="1.2"/>
<polygon points="0,-4 8,0 0,4" fill="#9CA3AF" transform="translate(769.7,600.0) rotate(45.2)"/>
<rect x="733.0" y="563.0" width="14" height="14" rx="3" fill="#FFFFFF" stroke="#9CA3AF" stroke-width="0.5"/>
<text x="740.0" y="573.0" text-anchor="middle" font-size="9" font-weight="bold" fill="#6B7280">S</text>
<path d="M 110.0 656.0 L 110.0 686.0 L 110.0 716.0" fill="none" stroke="#9CA3AF" stroke-width="1.2"/>
<polygon points="0,-4 8,0 0,4" fill="#9CA3AF" transform="translate(110.0,716.0) rotate(90.0)"/>
<rect x="103.0" y="679.0" width="14" height="14" rx="3" fill="#FFFFFF" stroke="#9CA3AF" stroke-width="0.5"/>
<text x="110.0" y="689.0" text-anchor="middle" font-size="9" font-weight="bold" fill="#6B7280">S</text>
<path d="M 110.0 540.0 L 110.0 570.0 L 110.0 600.0" fill="none" stroke="#9CA3AF" stroke-width="1.2"/>
<polygon points="0,-4 8,0 0,4" fill="#9CA3AF" transform="translate(110.0,600.0) rotate(90.0)"/>
<rect x="103.0" y="563.0" width="14" height="14" rx="3" fill="#FFFFFF" stroke="#9CA3AF" stroke-width="0.5"/>
<text x="110.0" y="573.0" text-anchor="middle" font-size="9" font-weight="bold" fill="#6B7280">S</text>
<g>
<rect x="20" y="20" width="180" height="56" rx="8" fill="#F3F4F6" stroke="#6B7280" stroke-width="1.5"/>
<text x="28" y="36" fill="#6B7280" font-size="11" font-weight="bold" font-family="monospace">P068</text>
<text x="192" y="36" fill="#6B7280" font-size="9" font-weight="bold" text-anchor="end">F</text>
<text x="28" y="52" fill="#374151" font-size="9">The return from investing in</text>
<text x="28" y="64" fill="#374151" font-size="9">Tesla&apos;s IPO from 2010 to Septem…</text>
</g>
<g>
<rect x="20" y="136" width="180" height="56" rx="8" fill="#FBF3E0" stroke="#D4842A" stroke-width="1.5"/>
<text x="28" y="152" fill="#D4842A" font-size="11" font-weight="bold" font-family="monospace">P069</text>
<text x="192" y="152" fill="#D4842A" font-size="9" font-weight="bold" text-anchor="end">M</text>
<text x="28" y="168" fill="#374151" font-size="9">Tesla&apos;s exceptional stock return</text>
<text x="28" y="180" fill="#374151" font-size="9">demonstrates the success of Mus…</text>
</g>
<g>
<rect x="20" y="252" width="180" height="56" rx="8" fill="#E5EEF1" stroke="#1A535C" stroke-width="1.5"/>
<text x="28" y="268" fill="#1A535C" font-size="11" font-weight="bold" font-family="monospace">P067</text>
<text x="192" y="268" fill="#1A535C" font-size="9" font-weight="bold" text-anchor="end">V</text>
<text x="28" y="284" fill="#374151" font-size="9">Tesla&apos;s greatest asset is Musk,</text>
<text x="28" y="296" fill="#374151" font-size="9">and investing in Tesla is a bet…</text>
</g>
<g>
<rect x="20" y="368" width="180" height="56" rx="8" fill="#E5EEF1" stroke="#1A535C" stroke-width="1.5"/>
<text x="28" y="384" fill="#1A535C" font-size="11" font-weight="bold" font-family="monospace">P070</text>
<text x="192" y="384" fill="#1A535C" font-size="9" font-weight="bold" text-anchor="end">V</text>
<text x="28" y="400" fill="#374151" font-size="9">The challenge for Tesla&apos;s board</text>
<text x="28" y="412" fill="#374151" font-size="9">and shareholders is to leverage…</text>
</g>
<g>
<rect x="20" y="484" width="180" height="56" rx="8" fill="#E1F1E9" stroke="#2E7D5B" stroke-width="1.5"/>
<text x="28" y="500" fill="#2E7D5B" font-size="11" font-weight="bold" font-family="monospace">P071</text>
<text x="192" y="500" fill="#2E7D5B" font-size="9" font-weight="bold" text-anchor="end">P</text>
<text x="28" y="516" fill="#374151" font-size="9">A potential solution to aligning</text>
<text x="28" y="528" fill="#374151" font-size="9">Musk&apos;s focus could be restructu…</text>
</g>
<g>
<rect x="20" y="600" width="180" height="56" rx="8" fill="#E1F1E9" stroke="#2E7D5B" stroke-width="1.5"/>
<text x="28" y="616" fill="#2E7D5B" font-size="11" font-weight="bold" font-family="monospace">P113</text>
<text x="192" y="616" fill="#2E7D5B" font-size="9" font-weight="bold" text-anchor="end">P</text>
<text x="28" y="632" fill="#374151" font-size="9">Tesla&apos;s board and shareholders</text>
<text x="28" y="644" fill="#374151" font-size="9">need to find a way to leverage …</text>
</g>
<g>
<rect x="20" y="716" width="180" height="56" rx="8" fill="#E1F1E9" stroke="#2E7D5B" stroke-width="1.5"/>
<text x="28" y="732" fill="#2E7D5B" font-size="11" font-weight="bold" font-family="monospace">P105</text>
<text x="192" y="732" fill="#2E7D5B" font-size="9" font-weight="bold" text-anchor="end">P</text>
<text x="28" y="748" fill="#374151" font-size="9">To retain its leadership</text>
<text x="28" y="760" fill="#374151" font-size="9">position in the EV marketplace,…</text>
</g>
<g>
<rect x="812.5" y="20" width="180" height="56" rx="8" fill="#F3F4F6" stroke="#6B7280" stroke-width="1.5"/>
<text x="820.5" y="36" fill="#6B7280" font-size="11" font-weight="bold" font-family="monospace">P039</text>
<text x="984.5" y="36" fill="#6B7280" font-size="9" font-weight="bold" text-anchor="end">F</text>
<text x="820.5" y="52" fill="#374151" font-size="9">Panasonic is second only behind</text>
<text x="820.5" y="64" fill="#374151" font-size="9">Samsung on the list of most int…</text>
</g>
<g>
<rect x="812.5" y="136" width="180" height="56" rx="8" fill="#FBF3E0" stroke="#D4842A" stroke-width="1.5"/>
<text x="820.5" y="152" fill="#D4842A" font-size="11" font-weight="bold" font-family="monospace">P038</text>
<text x="984.5" y="152" fill="#D4842A" font-size="9" font-weight="bold" text-anchor="end">M</text>
<text x="820.5" y="168" fill="#374151" font-size="9">Tesla&apos;s strategic partnership</text>
<text x="820.5" y="180" fill="#374151" font-size="9">with Panasonic has allowed it t…</text>
</g>
<g>
<rect x="812.5" y="252" width="180" height="56" rx="8" fill="#FBF3E0" stroke="#D4842A" stroke-width="1.5"/>
<text x="820.5" y="268" fill="#D4842A" font-size="11" font-weight="bold" font-family="monospace">P040</text>
<text x="984.5" y="268" fill="#D4842A" font-size="9" font-weight="bold" text-anchor="end">M</text>
<text x="820.5" y="284" fill="#374151" font-size="9">By entering into partnerships,</text>
<text x="820.5" y="296" fill="#374151" font-size="9">Tesla has accessed some of the …</text>
</g>
<g>
<rect x="707.5" y="368" width="180" height="56" rx="8" fill="#FBF3E0" stroke="#D4842A" stroke-width="1.5"/>
<text x="715.5" y="384" fill="#D4842A" font-size="11" font-weight="bold" font-family="monospace">P109</text>
<text x="879.5" y="384" fill="#D4842A" font-size="9" font-weight="bold" text-anchor="end">M</text>
<text x="715.5" y="400" fill="#374151" font-size="9">A strategic alliance with</text>
<text x="715.5" y="412" fill="#374151" font-size="9">Panasonic has allowed Tesla to …</text>
</g>
<g>
<rect x="650" y="484" width="180" height="56" rx="8" fill="#E1F1E9" stroke="#2E7D5B" stroke-width="1.5"/>
<text x="658" y="500" fill="#2E7D5B" font-size="11" font-weight="bold" font-family="monospace">P110</text>
<text x="822" y="500" fill="#2E7D5B" font-size="9" font-weight="bold" text-anchor="end">P</text>
<text x="658" y="516" fill="#374151" font-size="9">Tesla should continue looking</text>
<text x="658" y="528" fill="#374151" font-size="9">for opportunities to partner wi…</text>
</g>
<g>
<rect x="707.5" y="600" width="180" height="56" rx="8" fill="#E1F1E9" stroke="#2E7D5B" stroke-width="1.5"/>
<text x="715.5" y="616" fill="#2E7D5B" font-size="11" font-weight="bold" font-family="monospace">P104</text>
<text x="879.5" y="616" fill="#2E7D5B" font-size="9" font-weight="bold" text-anchor="end">P</text>
<text x="715.5" y="632" fill="#374151" font-size="9">To retain its leadership</text>
<text x="715.5" y="644" fill="#374151" font-size="9">position in the EV marketplace,…</text>
</g>
<g>
<rect x="335" y="20" width="180" height="56" rx="8" fill="#F3F4F6" stroke="#6B7280" stroke-width="1.5"/>
<text x="343" y="36" fill="#6B7280" font-size="11" font-weight="bold" font-family="monospace">P058</text>
<text x="507" y="36" fill="#6B7280" font-size="9" font-weight="bold" text-anchor="end">F</text>
<text x="343" y="52" fill="#374151" font-size="9">Tesla&apos;s integrated energy</text>
<text x="343" y="64" fill="#374151" font-size="9">ecosystem has been part of its …</text>
</g>
<g>
<rect x="335" y="136" width="180" height="56" rx="8" fill="#F3F4F6" stroke="#6B7280" stroke-width="1.5"/>
<text x="343" y="152" fill="#6B7280" font-size="11" font-weight="bold" font-family="monospace">P002</text>
<text x="507" y="152" fill="#6B7280" font-size="9" font-weight="bold" text-anchor="end">F</text>
<text x="343" y="168" fill="#374151" font-size="9">Tesla&apos;s founding goal was to</text>
<text x="343" y="180" fill="#374151" font-size="9">expedite the move from a hydroc…</text>
</g>
<g>
<rect x="335" y="252" width="180" height="56" rx="8" fill="#F3F4F6" stroke="#6B7280" stroke-width="1.5"/>
<text x="343" y="268" fill="#6B7280" font-size="11" font-weight="bold" font-family="monospace">P004</text>
<text x="507" y="268" fill="#6B7280" font-size="9" font-weight="bold" text-anchor="end">F</text>
<text x="343" y="284" fill="#374151" font-size="9">Tesla&apos;s long-term strategy was</text>
<text x="343" y="296" fill="#374151" font-size="9">to start at the top end of the …</text>
</g>
<g>
<rect x="440" y="368" width="180" height="56" rx="8" fill="#F3F4F6" stroke="#6B7280" stroke-width="1.5"/>
<text x="448" y="384" fill="#6B7280" font-size="11" font-weight="bold" font-family="monospace">P005</text>
<text x="612" y="384" fill="#6B7280" font-size="9" font-weight="bold" text-anchor="end">F</text>
<text x="448" y="400" fill="#374151" font-size="9">Tesla adhered to its early</text>
<text x="448" y="412" fill="#374151" font-size="9">philosophy and is the world&apos;s l…</text>
</g>
<g>
<rect x="440" y="484" width="180" height="56" rx="8" fill="#F3F4F6" stroke="#6B7280" stroke-width="1.5"/>
<text x="448" y="500" fill="#6B7280" font-size="11" font-weight="bold" font-family="monospace">P007</text>
<text x="612" y="500" fill="#6B7280" font-size="9" font-weight="bold" text-anchor="end">F</text>
<text x="448" y="516" fill="#374151" font-size="9">The Tesla Model Y and Model 3</text>
<text x="448" y="528" fill="#374151" font-size="9">were the top two highest-sellin…</text>
</g>
<g>
<rect x="927.5" y="368" width="180" height="56" rx="8" fill="#FBF3E0" stroke="#D4842A" stroke-width="1.5"/>
<text x="935.5" y="384" fill="#D4842A" font-size="11" font-weight="bold" font-family="monospace">P034</text>
<text x="1099.5" y="384" fill="#D4842A" font-size="9" font-weight="bold" text-anchor="end">M</text>
<text x="935.5" y="400" fill="#374151" font-size="9">Battery cost control has been</text>
<text x="935.5" y="412" fill="#374151" font-size="9">critical to Tesla&apos;s delivery su…</text>
</g>
<g>
<rect x="927.5" y="484" width="180" height="56" rx="8" fill="#F3F4F6" stroke="#6B7280" stroke-width="1.5"/>
<text x="935.5" y="500" fill="#6B7280" font-size="11" font-weight="bold" font-family="monospace">P033</text>
<text x="1099.5" y="500" fill="#6B7280" font-size="9" font-weight="bold" text-anchor="end">F</text>
<text x="935.5" y="516" fill="#374151" font-size="9">Tesla has consistently exceeded</text>
<text x="935.5" y="528" fill="#374151" font-size="9">market expectations for vehicle…</text>
</g>
<g>
<rect x="230" y="368" width="180" height="56" rx="8" fill="#FBF3E0" stroke="#D4842A" stroke-width="1.5"/>
<text x="238" y="384" fill="#D4842A" font-size="11" font-weight="bold" font-family="monospace">P101</text>
<text x="402" y="384" fill="#D4842A" font-size="9" font-weight="bold" text-anchor="end">M</text>
<text x="238" y="400" fill="#374151" font-size="9">Developing and adhering to its</text>
<text x="238" y="412" fill="#374151" font-size="9">long-term strategy has helped T…</text>
</g>
<g>
<rect x="230" y="484" width="180" height="56" rx="8" fill="#E5EEF1" stroke="#1A535C" stroke-width="1.5"/>
<text x="238" y="500" fill="#1A535C" font-size="11" font-weight="bold" font-family="monospace">P102</text>
<text x="402" y="500" fill="#1A535C" font-size="9" font-weight="bold" text-anchor="end">V</text>
<text x="238" y="516" fill="#374151" font-size="9">Technological innovation, bold</text>
<text x="238" y="528" fill="#374151" font-size="9">risk-taking, and the pursuit of…</text>
</g>
</g>
<rect x="20" y="872" width="14" height="14" rx="3" fill="#F3F4F6" stroke="#6B7280" stroke-width="1.5"/>
<text x="40" y="882" fill="#374151">Factual</text>
<rect x="130" y="872" width="14" height="14" rx="3" fill="#FBF3E0" stroke="#D4842A" stroke-width="1.5"/>
<text x="150" y="882" fill="#374151">Mechanism</text>
<rect x="240" y="872" width="14" height="14" rx="3" fill="#E5EEF1" stroke="#1A535C" stroke-width="1.5"/>
<text x="260" y="882" fill="#374151">Value/Eval</text>
<rect x="350" y="872" width="14" height="14" rx="3" fill="#E1F1E9" stroke="#2E7D5B" stroke-width="1.5"/>
<text x="370" y="882" fill="#374151">Prescriptive</text>
<text x="460" y="882" fill="#6B7280">Edges:</text>
<rect x="502" y="873" width="14" height="12" rx="2" fill="#FFFFFF" stroke="#9CA3AF" stroke-width="0.5"/>
<text x="509" y="882" text-anchor="middle" font-size="9" font-weight="bold" fill="#6B7280">S</text>
<text x="522" y="882" fill="#6B7280">support</text>
<rect x="622" y="873" width="14" height="12" rx="2" fill="#FFFFFF" stroke="#9CA3AF" stroke-width="0.5"/>
<text x="629" y="882" text-anchor="middle" font-size="9" font-weight="bold" fill="#6B7280">W</text>
<text x="642" y="882" fill="#6B7280">warrant</text>
<rect x="742" y="873" width="14" height="12" rx="2" fill="#FFFFFF" stroke="#9CA3AF" stroke-width="0.5"/>
<text x="749" y="882" text-anchor="middle" font-size="9" font-weight="bold" fill="#6B7280">J</text>
<text x="762" y="882" fill="#6B7280">justification</text>
</svg>