<svg xmlns="http://www.w3.org/2000/svg" viewBox="0 0 1130 876" font-family="Helvetica, Arial, sans-serif" font-size="11">
<rect x="0" y="0" width="1130" height="876" fill="#FFFFFF"/>
<text x="565" y="18" font-size="13" font-weight="bold" text-anchor="middle" fill="#1E2A32">E1 — ENTITY_23_E1_seed1</text>
<text x="565" y="34" font-size="10" text-anchor="middle" fill="#6B7280">AI E1 · 163 nodes / 150 edges · 5 chains shown</text>
<g transform="translate(0, 44)">
<path d="M 445.0 76.0 L 445.0 106.0 L 445.0 136.0" fill="none" stroke="#9CA3AF" stroke-width="1.2"/>
<polygon points="0,-4 8,0 0,4" fill="#9CA3AF" transform="translate(445.0,136.0) rotate(90.0)"/>
<rect x="438.0" y="99.0" width="14" height="14" rx="3" fill="#FFFFFF" stroke="#9CA3AF" stroke-width="0.5"/>
<text x="445.0" y="109.0" text-anchor="middle" font-size="9" font-weight="bold" fill="#6B7280">S</text>
<path d="M 770.0 76.0 L 770.0 106.0 L 770.0 136.0" fill="none" stroke="#9CA3AF" stroke-width="1.2"/>
<polygon points="0,-4 8,0 0,4" fill="#9CA3AF" transform="translate(770.0,136.0) rotate(90.0)"/>
<rect x="763.0" y="99.0" width="14" height="14" rx="3" fill="#FFFFFF" stroke="#9CA3AF" stroke-width="0.5"/>
<text x="770.0" y="109.0" text-anchor="middle" font-size="9" font-weight="bold" fill="#6B7280">S</text>
<path d="M 110.0 76.0 L 110.0 106.0 L 110.0 136.0" fill="none" stroke="#9CA3AF" stroke-width="1.2"/>
<polygon points="0,-4 8,0 0,4" fill="#9CA3AF" transform="translate(110.0,136.0) rotate(90.0)"/>
<rect x="103.0" y="99.0" width="14" height="14" rx="3" fill="#FFFFFF" stroke="#9CA3AF" stroke-width="0.5"/>
<text x="110.0" y="109.0" text-anchor="middle" font-size="9" font-weight="bold" fill="#6B7280">S</text>
<path d="M 110.0 192.0 L 110.0 222.0 L 110.0 252.0" fill="none" stroke="#9CA3AF" stroke-width="1.2"/>
<polygon points="0,-4 8,0 0,4" fill="#9CA3AF" transform="translate(110.0,252.0) rotate(90.0)"/>
<rect x="103.0" y="215.0" width="14" height="14" rx="3" fill="#FFFFFF" stroke="#9CA3AF" stroke-width="0.5"/>
<text x="110.0" y="225.0" text-anchor="middle" font-size="9" font-weight="bold" fill="#6B7280">S</text>
<path d="M 110.0 308.0 L 110.0 338.0 L 110.0 368.0" fill="none" stroke="#9CA3AF" stroke-width="1.2"/>
<polygon points="0,-4 8,0 0,4" fill="#9CA3AF" transform="translate(110.0,368.0) rotate(90.0)"/>
<rect x="103.0" y="331.0" width="14" height="14" rx="3" fill="#FFFFFF" stroke="#9CA3AF" stroke-width="0.5"/>
<text x="110.0" y="341.0" text-anchor="middle" font-size="9" font-weight="bold" fill="#6B7280">S</text>
<path d="M 110.0 424.0 L 110.0 454.0 L 110.0 484.0" fill="none" stroke="#9CA3AF" stroke-width="1.2"/>
<polygon points="0,-4 8,0 0,4" fill="#9CA3AF" transform="translate(110.0,484.0) rotate(90.0)"/>
<rect x="103.0" y="447.0" width="14" height="14" rx="3" fill="#FFFFFF" stroke="#9CA3AF" stroke-width="0.5"/>
<text x="110.0" y="457.0" text-anchor="middle" font-size="9" font-weight="bold" fill="#6B7280">S</text>
<path d="M 500.5 308.0 L 560.0 338.0 L 560.0 368.0" fill="none" stroke="#9CA3AF" stroke-width="1.2"/>
<polygon points="0,-4 8,0 0,4" fill="#9CA3AF" transform="translate(560.0,368.0) rotate(90.0)"/>
<rect x="553.0" y="331.0" width="14" height="14" rx="3" fill="#FFFFFF" stroke="#9CA3AF" stroke-width="0.5"/>
<text x="560.0" y="341.0" text-anchor="middle" font-size="9" font-weight="bold" fill="#6B7280">S</text>
<path d="M 445.0 192.0 L 445.0 222.0 L 445.0 252.0" fill="none" stroke="#9CA3AF" stroke-width="1.2"/>
<polygon points="0,-4 8,0 0,4" fill="#9CA3AF" transform="translate(445.0,252.0) rotate(90.0)"/>
<rect x="438.0" y="215.0" width="14" height="14" rx="3" fill="#FFFFFF" stroke="#9CA3AF" stroke-width="0.5"/>
<text x="445.0" y="225.0" text-anchor="middle" font-size="9" font-weight="bold" fill="#6B7280">S</text>
<path d="M 445.0 540.0 L 445.0 570.0 L 415.3 600.0" fill="none" stroke="#9CA3AF" stroke-width="1.2"/>
<polygon points="0,-4 8,0 0,4" fill="#9CA3AF" transform="translate(415.3,600.0) rotate(134.8)"/>
<rect x="438.0" y="563.0" width="14" height="14" rx="3" fill="#FFFFFF" stroke="#9CA3AF" stroke-width="0.5"/>
<text x="445.0" y="573.0" text-anchor="middle" font-size="9" font-weight="bold" fill="#6B7280">J</text>
<path d="M 445.0 308.0 L 445.0 338.0 L 445.0 396.0 L 445.0 454.0 L 445.0 484.0" fill="none" stroke="#9CA3AF" stroke-width="1.2"/>
<polygon points="0,-4 8,0 0,4" fill="#9CA3AF" transform="translate(445.0,484.0) rotate(90.0)"/>
<rect x="438.0" y="389.0" width="14" height="14" rx="3" fill="#FFFFFF" stroke="#9CA3AF" stroke-width="0.5"/>
<text x="445.0" y="399.0" text-anchor="middle" font-size="9" font-weight="bold" fill="#6B7280">S</text>
<path d="M 324.8 424.0 L 330.0 454.0 L 330.0 512.0 L 330.0 570.0 L 359.7 600.0" fill="none" stroke="#9CA3AF" stroke-width="1.2"/>
<polygon points="0,-4 8,0 0,4" fill="#9CA3AF" transform="translate(359.7,600.0) rotate(45.2)"/>
<rect x="323.0" y="505.0" width="14" height="14" rx="3" fill="#FFFFFF" stroke="#9CA3AF" stroke-width="0.5"/>
<text x="330.0" y="515.0" text-anchor="middle" font-size="9" font-weight="bold" fill="#6B7280">W</text>
<path d="M 770.0 308.0 L 770.0 338.0 L 770.0 368.0" fill="none" stroke="#9CA3AF" stroke-width="1.2"/>
<polygon points="0,-4 8,0 0,4" fill="#9CA3AF" transform="translate(770.0,368.0) rotate(90.0)"/>
<rect x="763.0" y="331.0" width="14" height="14" rx="3" fill="#FFFFFF" stroke="#9CA3AF" stroke-width="0.5"/>
<text x="770.0" y="341.0" text-anchor="middle" font-size="9" font-weight="bold" fill="#6B7280">J</text>
<path d="M 980.0 192.0 L 980.0 222.0 L 980.0 252.0" fill="none" stroke="#9CA3AF" stroke-width="1.2"/>
<polygon points="0,-4 8,0 0,4" fill="#9CA3AF" transform="translate(980.0,252.0) rotate(90.0)"/>
<rect x="973.0" y="215.0" width="14" height="14" rx="3" fill="#FFFFFF" stroke="#9CA3AF" stroke-width="0.5"/>
<text x="980.0" y="225.0" text-anchor="middle" font-size="9" font-weight="bold" fill="#6B7280">S</text>
<path d="M 980.0 76.0 L 980.0 106.0 L 980.0 136.0" fill="none" stroke="#9CA3AF" stroke-width="1.2"/>
<polygon points="0,-4 8,0 0,4" fill="#9CA3AF" transform="translate(980.0,136.0) rotate(90.0)"/>
<rect x="973.0" y="99.0" width="14" height="14" rx="3" fill="#FFFFFF" stroke="#9CA3AF" stroke-width="0.5"/>
<text x="980.0" y="109.0" text-anchor="middle" font-size="9" font-weight="bold" fill="#6B7280">S</text>
<path d="M 980.0 308.0 L 980.0 338.0 L 980.0 368.0" fill="none" stroke="#9CA3AF" stroke-width="1.2"/>
<polygon points="0,-4 8,0 0,4" fill="#9CA3AF" transform="translate(980.0,368.0) rotate(90.0)"/>
<rect x="973.0" y="331.0" width="14" height="14" rx="3" fill="#FFFFFF" stroke="#9CA3AF" stroke-width="0.5"/>
<text x="980.0" y="341.0" text-anchor="middle" font-size="9" font-weight="bold" fill="#6B7280">J</text>
<path d="M 770.0 192.0 L 770.0 222.0 L 770.0 252.0" fill="none" stroke="#9CA3AF" stroke-width="1.2"/>
<polygon points="0,-4 8,0 0,4" fill="#9CA3AF" transform="translate(770.0,252.0) rotate(90.0)"/>
<rect x="763.0" y="215.0" width="14" height="14" rx="3" fill="#FFFFFF" stroke="#9CA3AF" stroke-width="0.5"/>
<text x="770.0" y="225.0" text-anchor="middle" font-size="9" font-weight="bold" fill="#6B7280">S</text>
<path d="M 387.5 656.0 L 387.5 686.0 L 387.5 716.0" fill="none" stroke="#9CA3AF" stroke-width="1.2"/>
<polygon points="0,-4 8,0 0,4" fill="#9CA3AF" transform="translate(387.5,716.0) rotate(90.0)"/>
<rect x="380.5" y="679.0" width="14" height="14" rx="3" fill="#FFFFFF" stroke="#9CA3AF" stroke-width="0.5"/>
<text x="387.5" y="689.0" text-anchor="middle" font-size="9" font-weight="bold" fill="#6B7280">S</text>
<path d="M 274.1 424.0 L 225.0 454.0 L 355.0 488.3" fill="none" stroke="#9CA3AF" stroke-width="1.2"/>
<polygon points="0,-4 8,0 0,4" fill="#9CA3AF" transform="translate(355.0,488.3) rotate(14.8)"/>
<rect x="218.0" y="447.0" width="14" height="14" rx="3" fill="#FFFFFF" stroke="#9CA3AF" stroke-width="0.5"/>
<text x="225.0" y="457.0" text-anchor="middle" font-size="9" font-weight="bold" fill="#6B7280">S</text>
<path d="M 384.7 308.0 L 320.0 338.0 L 320.0 368.0" fill="none" stroke="#9CA3AF" stroke-width="1.2"/>
<polygon points="0,-4 8,0 0,4" fill="#9CA3AF" transform="translate(320.0,368.0) rotate(90.0)"/>
<rect x="313.0" y="331.0" width="14" height="14" rx="3" fill="#FFFFFF" stroke="#9CA3AF" stroke-width="0.5"/>
<text x="320.0" y="341.0" text-anchor="middle" font-size="9" font-weight="bold" fill="#6B7280">S</text>
<g>
<rect x="355" y="20" width="180" height="56" rx="8" fill="#F3F4F6" stroke="#6B7280" stroke-width="1.5"/>
<text x="363" y="36" fill="#6B7280" font-size="11" font-weight="bold" font-family="monospace">P016</text>
<text x="527" y="36" fill="#6B7280" font-size="9" font-weight="bold" text-anchor="end">F</text>
<text x="363" y="52" fill="#374151" font-size="9">On 20 February 2024, Sir Jim</text>
<text x="363" y="64" fill="#374151" font-size="9">Ratcliffe and his INEOS Group a…</text>
</g>
<g>
<rect x="355" y="136" width="180" height="56" rx="8" fill="#E5EEF1" stroke="#1A535C" stroke-width="1.5"/>
<text x="363" y="152" fill="#1A535C" font-size="11" font-weight="bold" font-family="monospace">P018</text>
<text x="527" y="152" fill="#1A535C" font-size="9" font-weight="bold" text-anchor="end">V</text>
<text x="363" y="168" fill="#374151" font-size="9">The dual-principal structure —</text>
<text x="363" y="180" fill="#374151" font-size="9">INEOS controlling sporting deci…</text>
</g>
<g>
<rect x="355" y="252" width="180" height="56" rx="8" fill="#E5EEF1" stroke="#1A535C" stroke-width="1.5"/>
<text x="363" y="268" fill="#1A535C" font-size="11" font-weight="bold" font-family="monospace">P096</text>
<text x="527" y="268" fill="#1A535C" font-size="9" font-weight="bold" text-anchor="end">V</text>
<text x="363" y="284" fill="#374151" font-size="9">The dual-principal governance</text>
<text x="363" y="296" fill="#374151" font-size="9">structure creates a strategic p…</text>
</g>
<g>
<rect x="230" y="368" width="180" height="56" rx="8" fill="#FBF3E0" stroke="#D4842A" stroke-width="1.5"/>
<text x="238" y="384" fill="#D4842A" font-size="11" font-weight="bold" font-family="monospace">P108</text>
<text x="402" y="384" fill="#D4842A" font-size="9" font-weight="bold" text-anchor="end">M</text>
<text x="238" y="400" fill="#374151" font-size="9">The governance structure is the</text>
<text x="238" y="412" fill="#374151" font-size="9">proximate cause of the inabilit…</text>
</g>
<g>
<rect x="355" y="484" width="180" height="56" rx="8" fill="#E5EEF1" stroke="#1A535C" stroke-width="1.5"/>
<text x="363" y="500" fill="#1A535C" font-size="11" font-weight="bold" font-family="monospace">P103</text>
<text x="527" y="500" fill="#1A535C" font-size="9" font-weight="bold" text-anchor="end">V</text>
<text x="363" y="516" fill="#374151" font-size="9">The dual-principal ownership</text>
<text x="363" y="528" fill="#374151" font-size="9">structure is the single most im…</text>
</g>
<g>
<rect x="297.5" y="600" width="180" height="56" rx="8" fill="#E1F1E9" stroke="#2E7D5B" stroke-width="1.5"/>
<text x="305.5" y="616" fill="#2E7D5B" font-size="11" font-weight="bold" font-family="monospace">P104</text>
<text x="469.5" y="616" fill="#2E7D5B" font-size="9" font-weight="bold" text-anchor="end">P</text>
<text x="305.5" y="632" fill="#374151" font-size="9">INEOS must negotiate either a</text>
<text x="305.5" y="644" fill="#374151" font-size="9">formal framework agreement with…</text>
</g>
<g>
<rect x="297.5" y="716" width="180" height="56" rx="8" fill="#E1F1E9" stroke="#2E7D5B" stroke-width="1.5"/>
<text x="305.5" y="732" fill="#2E7D5B" font-size="11" font-weight="bold" font-family="monospace">P159</text>
<text x="469.5" y="732" fill="#2E7D5B" font-size="9" font-weight="bold" text-anchor="end">P</text>
<text x="305.5" y="748" fill="#374151" font-size="9">Breaking the value destruction</text>
<text x="305.5" y="760" fill="#374151" font-size="9">chain requires action at the go…</text>
</g>
<g>
<rect x="20" y="20" width="180" height="56" rx="8" fill="#F3F4F6" stroke="#6B7280" stroke-width="1.5"/>
<text x="28" y="36" fill="#6B7280" font-size="11" font-weight="bold" font-family="monospace">P042</text>
<text x="192" y="36" fill="#6B7280" font-size="9" font-weight="bold" text-anchor="end">F</text>
<text x="28" y="52" fill="#374151" font-size="9">Newcastle&apos;s ownership has</text>
<text x="28" y="64" fill="#374151" font-size="9">supported major investment in q…</text>
</g>
<g>
<rect x="20" y="136" width="180" height="56" rx="8" fill="#FBF3E0" stroke="#D4842A" stroke-width="1.5"/>
<text x="28" y="152" fill="#D4842A" font-size="11" font-weight="bold" font-family="monospace">P043</text>
<text x="192" y="152" fill="#D4842A" font-size="9" font-weight="bold" text-anchor="end">M</text>
<text x="28" y="168" fill="#374151" font-size="9">State-backed ownership models</text>
<text x="28" y="180" fill="#374151" font-size="9">represent a form of new entry i…</text>
</g>
<g>
<rect x="20" y="252" width="180" height="56" rx="8" fill="#FBF3E0" stroke="#D4842A" stroke-width="1.5"/>
<text x="28" y="268" fill="#D4842A" font-size="11" font-weight="bold" font-family="monospace">P051</text>
<text x="192" y="268" fill="#D4842A" font-size="9" font-weight="bold" text-anchor="end">M</text>
<text x="28" y="284" fill="#374151" font-size="9">The competitive landscape has</text>
<text x="28" y="296" fill="#374151" font-size="9">been fundamentally altered by o…</text>
</g>
<g>
<rect x="20" y="368" width="180" height="56" rx="8" fill="#E5EEF1" stroke="#1A535C" stroke-width="1.5"/>
<text x="28" y="384" fill="#1A535C" font-size="11" font-weight="bold" font-family="monospace">P052</text>
<text x="192" y="384" fill="#1A535C" font-size="9" font-weight="bold" text-anchor="end">V</text>
<text x="28" y="400" fill="#374151" font-size="9">The elite football industry</text>
<text x="28" y="412" fill="#374151" font-size="9">structure is characterised by v…</text>
</g>
<g>
<rect x="20" y="484" width="180" height="56" rx="8" fill="#E5EEF1" stroke="#1A535C" stroke-width="1.5"/>
<text x="28" y="500" fill="#1A535C" font-size="11" font-weight="bold" font-family="monospace">P053</text>
<text x="192" y="500" fill="#1A535C" font-size="9" font-weight="bold" text-anchor="end">V</text>
<text x="28" y="516" fill="#374151" font-size="9">For a club with structural</text>
<text x="28" y="528" fill="#374151" font-size="9">financial constraints, this ind…</text>
</g>
<g>
<rect x="470" y="368" width="180" height="56" rx="8" fill="#E5EEF1" stroke="#1A535C" stroke-width="1.5"/>
<text x="478" y="384" fill="#1A535C" font-size="11" font-weight="bold" font-family="monospace">P095</text>
<text x="642" y="384" fill="#1A535C" font-size="9" font-weight="bold" text-anchor="end">V</text>
<text x="478" y="400" fill="#374151" font-size="9">The INEOS intervention is a</text>
<text x="478" y="412" fill="#374151" font-size="9">necessary but insufficient cond…</text>
</g>
<g>
<rect x="680" y="20" width="180" height="56" rx="8" fill="#F3F4F6" stroke="#6B7280" stroke-width="1.5"/>
<text x="688" y="36" fill="#6B7280" font-size="11" font-weight="bold" font-family="monospace">P024</text>
<text x="852" y="36" fill="#6B7280" font-size="9" font-weight="bold" text-anchor="end">F</text>
<text x="688" y="52" fill="#374151" font-size="9">The Manchester United</text>
<text x="688" y="64" fill="#374151" font-size="9">Supporters&apos; Trust wrote an open…</text>
</g>
<g>
<rect x="680" y="136" width="180" height="56" rx="8" fill="#F3F4F6" stroke="#6B7280" stroke-width="1.5"/>
<text x="688" y="152" fill="#6B7280" font-size="11" font-weight="bold" font-family="monospace">P028</text>
<text x="852" y="152" fill="#6B7280" font-size="9" font-weight="bold" text-anchor="end">F</text>
<text x="688" y="168" fill="#374151" font-size="9">Fan alienation has become a</text>
<text x="688" y="180" fill="#374151" font-size="9">strategic risk, with MUST calli…</text>
</g>
<g>
<rect x="680" y="252" width="180" height="56" rx="8" fill="#FBF3E0" stroke="#D4842A" stroke-width="1.5"/>
<text x="688" y="268" fill="#D4842A" font-size="11" font-weight="bold" font-family="monospace">P119</text>
<text x="852" y="268" fill="#D4842A" font-size="9" font-weight="bold" text-anchor="end">M</text>
<text x="688" y="284" fill="#374151" font-size="9">Fan alienation threatens the</text>
<text x="688" y="296" fill="#374151" font-size="9">authentic supporter culture tha…</text>
</g>
<g>
<rect x="680" y="368" width="180" height="56" rx="8" fill="#E1F1E9" stroke="#2E7D5B" stroke-width="1.5"/>
<text x="688" y="384" fill="#2E7D5B" font-size="11" font-weight="bold" font-family="monospace">P116</text>
<text x="852" y="384" fill="#2E7D5B" font-size="9" font-weight="bold" text-anchor="end">P</text>
<text x="688" y="400" fill="#374151" font-size="9">Manchester United should</text>
<text x="688" y="412" fill="#374151" font-size="9">establish a formal Fan Advisory…</text>
</g>
<g>
<rect x="890" y="20" width="180" height="56" rx="8" fill="#F3F4F6" stroke="#6B7280" stroke-width="1.5"/>
<text x="898" y="36" fill="#6B7280" font-size="11" font-weight="bold" font-family="monospace">P048</text>
<text x="1062" y="36" fill="#6B7280" font-size="9" font-weight="bold" text-anchor="end">F</text>
<text x="898" y="52" fill="#374151" font-size="9">In 2023–24, Manchester United</text>
<text x="898" y="64" fill="#374151" font-size="9">extended its long-standing part…</text>
</g>
<g>
<rect x="890" y="136" width="180" height="56" rx="8" fill="#FBF3E0" stroke="#D4842A" stroke-width="1.5"/>
<text x="898" y="152" fill="#D4842A" font-size="11" font-weight="bold" font-family="monospace">P127</text>
<text x="1062" y="152" fill="#D4842A" font-size="9" font-weight="bold" text-anchor="end">M</text>
<text x="898" y="168" fill="#374151" font-size="9">The Adidas deal&apos;s £10 million</text>
<text x="898" y="180" fill="#374151" font-size="9">penalty clause for non-qualific…</text>
</g>
<g>
<rect x="890" y="252" width="180" height="56" rx="8" fill="#E5EEF1" stroke="#1A535C" stroke-width="1.5"/>
<text x="898" y="268" fill="#1A535C" font-size="11" font-weight="bold" font-family="monospace">P126</text>
<text x="1062" y="268" fill="#1A535C" font-size="9" font-weight="bold" text-anchor="end">V</text>
<text x="898" y="284" fill="#374151" font-size="9">The strategic importance of</text>
<text x="898" y="296" fill="#374151" font-size="9">Champions League participation …</text>
</g>
<g>
<rect x="890" y="368" width="180" height="56" rx="8" fill="#E1F1E9" stroke="#2E7D5B" stroke-width="1.5"/>
<text x="898" y="384" fill="#2E7D5B" font-size="11" font-weight="bold" font-family="monospace">P130</text>
<text x="1062" y="384" fill="#2E7D5B" font-size="9" font-weight="bold" text-anchor="end">P</text>
<text x="898" y="400" fill="#374151" font-size="9">All sporting investment</text>
<text x="898" y="412" fill="#374151" font-size="9">decisions should be evaluated a…</text>
</g>
</g></svg>