<svg xmlns="http://www.w3.org/2000/svg" viewBox="0 0 1110 876" font-family="Helvetica, Arial, sans-serif" font-size="11">
<rect x="0" y="0" width="1110" height="876" fill="#FFFFFF"/>
<text x="555" y="18" font-size="13" font-weight="bold" text-anchor="middle" fill="#1E2A32">E2 — ENTITY_23_E2_seed1</text>
<text x="555" y="34" font-size="10" text-anchor="middle" fill="#6B7280">AI E2 · 179 nodes / 175 edges · 5 chains shown</text>
<g transform="translate(0, 44)">
<path d="M 520.0 76.0 L 520.0 106.0 L 520.0 136.0" fill="none" stroke="#9CA3AF" stroke-width="1.2"/>
<polygon points="0,-4 8,0 0,4" fill="#9CA3AF" transform="translate(520.0,136.0) rotate(90.0)"/>
<rect x="513.0" y="99.0" width="14" height="14" rx="3" fill="#FFFFFF" stroke="#9CA3AF" stroke-width="0.5"/>
<text x="520.0" y="109.0" text-anchor="middle" font-size="9" font-weight="bold" fill="#6B7280">S</text>
<path d="M 750.0 76.0 L 750.0 106.0 L 750.0 136.0" fill="none" stroke="#9CA3AF" stroke-width="1.2"/>
<polygon points="0,-4 8,0 0,4" fill="#9CA3AF" transform="translate(750.0,136.0) rotate(90.0)"/>
<rect x="743.0" y="99.0" width="14" height="14" rx="3" fill="#FFFFFF" stroke="#9CA3AF" stroke-width="0.5"/>
<text x="750.0" y="109.0" text-anchor="middle" font-size="9" font-weight="bold" fill="#6B7280">S</text>
<path d="M 520.0 192.0 L 520.0 222.0 L 660.0 257.3" fill="none" stroke="#9CA3AF" stroke-width="1.2"/>
<polygon points="0,-4 8,0 0,4" fill="#9CA3AF" transform="translate(660.0,257.3) rotate(14.2)"/>
<rect x="513.0" y="215.0" width="14" height="14" rx="3" fill="#FFFFFF" stroke="#9CA3AF" stroke-width="0.5"/>
<text x="520.0" y="225.0" text-anchor="middle" font-size="9" font-weight="bold" fill="#6B7280">S</text>
<path d="M 777.8 192.0 L 807.5 222.0 L 777.8 252.0" fill="none" stroke="#9CA3AF" stroke-width="1.2"/>
<polygon points="0,-4 8,0 0,4" fill="#9CA3AF" transform="translate(777.8,252.0) rotate(134.8)"/>
<rect x="800.5" y="215.0" width="14" height="14" rx="3" fill="#FFFFFF" stroke="#9CA3AF" stroke-width="0.5"/>
<text x="807.5" y="225.0" text-anchor="middle" font-size="9" font-weight="bold" fill="#6B7280">S</text>
<path d="M 676.4 192.0 L 597.5 222.0 L 567.8 252.0" fill="none" stroke="#9CA3AF" stroke-width="1.2"/>
<polygon points="0,-4 8,0 0,4" fill="#9CA3AF" transform="translate(567.8,252.0) rotate(134.8)"/>
<rect x="590.5" y="215.0" width="14" height="14" rx="3" fill="#FFFFFF" stroke="#9CA3AF" stroke-width="0.5"/>
<text x="597.5" y="225.0" text-anchor="middle" font-size="9" font-weight="bold" fill="#6B7280">S</text>
<path d="M 540.0 308.0 L 540.0 338.0 L 540.0 368.0" fill="none" stroke="#9CA3AF" stroke-width="1.2"/>
<polygon points="0,-4 8,0 0,4" fill="#9CA3AF" transform="translate(540.0,368.0) rotate(90.0)"/>
<rect x="533.0" y="331.0" width="14" height="14" rx="3" fill="#FFFFFF" stroke="#9CA3AF" stroke-width="0.5"/>
<text x="540.0" y="341.0" text-anchor="middle" font-size="9" font-weight="bold" fill="#6B7280">W</text>
<path d="M 750.0 308.0 L 750.0 338.0 L 750.0 368.0" fill="none" stroke="#9CA3AF" stroke-width="1.2"/>
<polygon points="0,-4 8,0 0,4" fill="#9CA3AF" transform="translate(750.0,368.0) rotate(90.0)"/>
<rect x="743.0" y="331.0" width="14" height="14" rx="3" fill="#FFFFFF" stroke="#9CA3AF" stroke-width="0.5"/>
<text x="750.0" y="341.0" text-anchor="middle" font-size="9" font-weight="bold" fill="#6B7280">S</text>
<path d="M 750.0 424.0 L 750.0 454.0 L 750.0 484.0" fill="none" stroke="#9CA3AF" stroke-width="1.2"/>
<polygon points="0,-4 8,0 0,4" fill="#9CA3AF" transform="translate(750.0,484.0) rotate(90.0)"/>
<rect x="743.0" y="447.0" width="14" height="14" rx="3" fill="#FFFFFF" stroke="#9CA3AF" stroke-width="0.5"/>
<text x="750.0" y="457.0" text-anchor="middle" font-size="9" font-weight="bold" fill="#6B7280">S</text>
<path d="M 960.0 76.0 L 960.0 106.0 L 960.0 136.0" fill="none" stroke="#9CA3AF" stroke-width="1.2"/>
<polygon points="0,-4 8,0 0,4" fill="#9CA3AF" transform="translate(960.0,136.0) rotate(90.0)"/>
<rect x="953.0" y="99.0" width="14" height="14" rx="3" fill="#FFFFFF" stroke="#9CA3AF" stroke-width="0.5"/>
<text x="960.0" y="109.0" text-anchor="middle" font-size="9" font-weight="bold" fill="#6B7280">S</text>
<path d="M 260.9 76.0 L 310.0 106.0 L 310.0 136.0" fill="none" stroke="#9CA3AF" stroke-width="1.2"/>
<polygon points="0,-4 8,0 0,4" fill="#9CA3AF" transform="translate(310.0,136.0) rotate(90.0)"/>
<rect x="303.0" y="99.0" width="14" height="14" rx="3" fill="#FFFFFF" stroke="#9CA3AF" stroke-width="0.5"/>
<text x="310.0" y="109.0" text-anchor="middle" font-size="9" font-weight="bold" fill="#6B7280">S</text>
<path d="M 960.0 192.0 L 960.0 222.0 L 960.0 252.0" fill="none" stroke="#9CA3AF" stroke-width="1.2"/>
<polygon points="0,-4 8,0 0,4" fill="#9CA3AF" transform="translate(960.0,252.0) rotate(90.0)"/>
<rect x="953.0" y="215.0" width="14" height="14" rx="3" fill="#FFFFFF" stroke="#9CA3AF" stroke-width="0.5"/>
<text x="960.0" y="225.0" text-anchor="middle" font-size="9" font-weight="bold" fill="#6B7280">S</text>
<path d="M 960.0 308.0 L 960.0 338.0 L 960.0 368.0" fill="none" stroke="#9CA3AF" stroke-width="1.2"/>
<polygon points="0,-4 8,0 0,4" fill="#9CA3AF" transform="translate(960.0,368.0) rotate(90.0)"/>
<rect x="953.0" y="331.0" width="14" height="14" rx="3" fill="#FFFFFF" stroke="#9CA3AF" stroke-width="0.5"/>
<text x="960.0" y="341.0" text-anchor="middle" font-size="9" font-weight="bold" fill="#6B7280">S</text>
<path d="M 960.0 424.0 L 960.0 454.0 L 960.0 484.0" fill="none" stroke="#9CA3AF" stroke-width="1.2"/>
<polygon points="0,-4 8,0 0,4" fill="#9CA3AF" transform="translate(960.0,484.0) rotate(90.0)"/>
<rect x="953.0" y="447.0" width="14" height="14" rx="3" fill="#FFFFFF" stroke="#9CA3AF" stroke-width="0.5"/>
<text x="960.0" y="457.0" text-anchor="middle" font-size="9" font-weight="bold" fill="#6B7280">J</text>
<path d="M 215.0 308.0 L 215.0 338.0 L 215.0 368.0" fill="none" stroke="#9CA3AF" stroke-width="1.2"/>
<polygon points="0,-4 8,0 0,4" fill="#9CA3AF" transform="translate(215.0,368.0) rotate(90.0)"/>
<rect x="208.0" y="331.0" width="14" height="14" rx="3" fill="#FFFFFF" stroke="#9CA3AF" stroke-width="0.5"/>
<text x="215.0" y="341.0" text-anchor="middle" font-size="9" font-weight="bold" fill="#6B7280">S</text>
<path d="M 215.0 424.0 L 215.0 454.0 L 215.0 484.0" fill="none" stroke="#9CA3AF" stroke-width="1.2"/>
<polygon points="0,-4 8,0 0,4" fill="#9CA3AF" transform="translate(215.0,484.0) rotate(90.0)"/>
<rect x="208.0" y="447.0" width="14" height="14" rx="3" fill="#FFFFFF" stroke="#9CA3AF" stroke-width="0.5"/>
<text x="215.0" y="457.0" text-anchor="middle" font-size="9" font-weight="bold" fill="#6B7280">W</text>
<path d="M 265.7 540.0 L 320.0 570.0 L 320.0 600.0" fill="none" stroke="#9CA3AF" stroke-width="1.2"/>
<polygon points="0,-4 8,0 0,4" fill="#9CA3AF" transform="translate(320.0,600.0) rotate(90.0)"/>
<rect x="313.0" y="563.0" width="14" height="14" rx="3" fill="#FFFFFF" stroke="#9CA3AF" stroke-width="0.5"/>
<text x="320.0" y="573.0" text-anchor="middle" font-size="9" font-weight="bold" fill="#6B7280">J</text>
<path d="M 110.0 656.0 L 110.0 686.0 L 110.0 716.0" fill="none" stroke="#9CA3AF" stroke-width="1.2"/>
<polygon points="0,-4 8,0 0,4" fill="#9CA3AF" transform="translate(110.0,716.0) rotate(90.0)"/>
<rect x="103.0" y="679.0" width="14" height="14" rx="3" fill="#FFFFFF" stroke="#9CA3AF" stroke-width="0.5"/>
<text x="110.0" y="689.0" text-anchor="middle" font-size="9" font-weight="bold" fill="#6B7280">W</text>
<path d="M 187.2 76.0 L 157.5 106.0 L 157.5 164.0 L 157.5 222.0 L 187.2 252.0" fill="none" stroke="#9CA3AF" stroke-width="1.2"/>
<polygon points="0,-4 8,0 0,4" fill="#9CA3AF" transform="translate(187.2,252.0) rotate(45.2)"/>
<rect x="150.5" y="157.0" width="14" height="14" rx="3" fill="#FFFFFF" stroke="#9CA3AF" stroke-width="0.5"/>
<text x="157.5" y="167.0" text-anchor="middle" font-size="9" font-weight="bold" fill="#6B7280">S</text>
<path d="M 310.0 192.0 L 310.0 222.0 L 260.9 252.0" fill="none" stroke="#9CA3AF" stroke-width="1.2"/>
<polygon points="0,-4 8,0 0,4" fill="#9CA3AF" transform="translate(260.9,252.0) rotate(148.6)"/>
<rect x="303.0" y="215.0" width="14" height="14" rx="3" fill="#FFFFFF" stroke="#9CA3AF" stroke-width="0.5"/>
<text x="310.0" y="225.0" text-anchor="middle" font-size="9" font-weight="bold" fill="#6B7280">S</text>
<path d="M 164.3 540.0 L 110.0 570.0 L 110.0 600.0" fill="none" stroke="#9CA3AF" stroke-width="1.2"/>
<polygon points="0,-4 8,0 0,4" fill="#9CA3AF" transform="translate(110.0,600.0) rotate(90.0)"/>
<rect x="103.0" y="563.0" width="14" height="14" rx="3" fill="#FFFFFF" stroke="#9CA3AF" stroke-width="0.5"/>
<text x="110.0" y="573.0" text-anchor="middle" font-size="9" font-weight="bold" fill="#6B7280">S</text>
<g>
<rect x="125" y="20" width="180" height="56" rx="8" fill="#F3F4F6" stroke="#6B7280" stroke-width="1.5"/>
<text x="133" y="36" fill="#6B7280" font-size="11" font-weight="bold" font-family="monospace">P068</text>
<text x="297" y="36" fill="#6B7280" font-size="9" font-weight="bold" text-anchor="end">F</text>
<text x="133" y="52" fill="#374151" font-size="9">A wage bill of £313m against</text>
<text x="133" y="64" fill="#374151" font-size="9">revenue of £666m represents a w…</text>
</g>
<g>
<rect x="220" y="136" width="180" height="56" rx="8" fill="#FBF3E0" stroke="#D4842A" stroke-width="1.5"/>
<text x="228" y="152" fill="#D4842A" font-size="11" font-weight="bold" font-family="monospace">P069</text>
<text x="392" y="152" fill="#D4842A" font-size="9" font-weight="bold" text-anchor="end">M</text>
<text x="228" y="168" fill="#374151" font-size="9">The 47% wage-to-revenue ratio</text>
<text x="228" y="180" fill="#374151" font-size="9">consumes resources that could f…</text>
</g>
<g>
<rect x="125" y="252" width="180" height="56" rx="8" fill="#F3F4F6" stroke="#6B7280" stroke-width="1.5"/>
<text x="133" y="268" fill="#6B7280" font-size="11" font-weight="bold" font-family="monospace">P066</text>
<text x="297" y="268" fill="#6B7280" font-size="9" font-weight="bold" text-anchor="end">F</text>
<text x="133" y="284" fill="#374151" font-size="9">Manchester United revealed they</text>
<text x="133" y="296" fill="#374151" font-size="9">are at risk of failing to compl…</text>
</g>
<g>
<rect x="125" y="368" width="180" height="56" rx="8" fill="#FBF3E0" stroke="#D4842A" stroke-width="1.5"/>
<text x="133" y="384" fill="#D4842A" font-size="11" font-weight="bold" font-family="monospace">P093</text>
<text x="297" y="384" fill="#D4842A" font-size="9" font-weight="bold" text-anchor="end">M</text>
<text x="133" y="400" fill="#374151" font-size="9">Broadcasting revenue is</text>
<text x="133" y="412" fill="#374151" font-size="9">performance-sensitive (−£48.9m …</text>
</g>
<g>
<rect x="125" y="484" width="180" height="56" rx="8" fill="#FBF3E0" stroke="#D4842A" stroke-width="1.5"/>
<text x="133" y="500" fill="#D4842A" font-size="11" font-weight="bold" font-family="monospace">P094</text>
<text x="297" y="500" fill="#D4842A" font-size="9" font-weight="bold" text-anchor="end">M</text>
<text x="133" y="516" fill="#374151" font-size="9">Manchester United&apos;s strategic</text>
<text x="133" y="528" fill="#374151" font-size="9">situation constitutes a negativ…</text>
</g>
<g>
<rect x="20" y="600" width="180" height="56" rx="8" fill="#E5EEF1" stroke="#1A535C" stroke-width="1.5"/>
<text x="28" y="616" fill="#1A535C" font-size="11" font-weight="bold" font-family="monospace">P174</text>
<text x="192" y="616" fill="#1A535C" font-size="9" font-weight="bold" text-anchor="end">V</text>
<text x="28" y="632" fill="#374151" font-size="9">United&apos;s problems are</text>
<text x="28" y="644" fill="#374151" font-size="9">structural, not cyclical, and t…</text>
</g>
<g>
<rect x="20" y="716" width="180" height="56" rx="8" fill="#E5EEF1" stroke="#1A535C" stroke-width="1.5"/>
<text x="28" y="732" fill="#1A535C" font-size="11" font-weight="bold" font-family="monospace">P175</text>
<text x="192" y="732" fill="#1A535C" font-size="9" font-weight="bold" text-anchor="end">V</text>
<text x="28" y="748" fill="#374151" font-size="9">Spending more money on transfers</text>
<text x="28" y="760" fill="#374151" font-size="9">addresses symptoms rather than …</text>
</g>
<g>
<rect x="230" y="600" width="180" height="56" rx="8" fill="#E1F1E9" stroke="#2E7D5B" stroke-width="1.5"/>
<text x="238" y="616" fill="#2E7D5B" font-size="11" font-weight="bold" font-family="monospace">P102</text>
<text x="402" y="616" fill="#2E7D5B" font-size="9" font-weight="bold" text-anchor="end">P</text>
<text x="238" y="632" fill="#374151" font-size="9">To resolve the negative feedback</text>
<text x="238" y="644" fill="#374151" font-size="9">loop, United requires a phased …</text>
</g>
<g>
<rect x="430" y="20" width="180" height="56" rx="8" fill="#F3F4F6" stroke="#6B7280" stroke-width="1.5"/>
<text x="438" y="36" fill="#6B7280" font-size="11" font-weight="bold" font-family="monospace">P026</text>
<text x="602" y="36" fill="#6B7280" font-size="9" font-weight="bold" text-anchor="end">F</text>
<text x="438" y="52" fill="#374151" font-size="9">Liverpool&apos;s recruitment wins</text>
<text x="438" y="64" fill="#374151" font-size="9">through analytics — signing Moh…</text>
</g>
<g>
<rect x="430" y="136" width="180" height="56" rx="8" fill="#E5EEF1" stroke="#1A535C" stroke-width="1.5"/>
<text x="438" y="152" fill="#1A535C" font-size="11" font-weight="bold" font-family="monospace">P028</text>
<text x="602" y="152" fill="#1A535C" font-size="9" font-weight="bold" text-anchor="end">V</text>
<text x="438" y="168" fill="#374151" font-size="9">United&apos;s rivals have</text>
<text x="438" y="180" fill="#374151" font-size="9">institutionalised data-driven c…</text>
</g>
<g>
<rect x="660" y="252" width="180" height="56" rx="8" fill="#E5EEF1" stroke="#1A535C" stroke-width="1.5"/>
<text x="668" y="268" fill="#1A535C" font-size="11" font-weight="bold" font-family="monospace">P025</text>
<text x="832" y="268" fill="#1A535C" font-size="9" font-weight="bold" text-anchor="end">V</text>
<text x="668" y="284" fill="#374151" font-size="9">The Premier League&apos;s competitive</text>
<text x="668" y="296" fill="#374151" font-size="9">intensity has never been greate…</text>
</g>
<g>
<rect x="660" y="368" width="180" height="56" rx="8" fill="#E5EEF1" stroke="#1A535C" stroke-width="1.5"/>
<text x="668" y="384" fill="#1A535C" font-size="11" font-weight="bold" font-family="monospace">P050</text>
<text x="832" y="384" fill="#1A535C" font-size="9" font-weight="bold" text-anchor="end">V</text>
<text x="668" y="400" fill="#374151" font-size="9">The external environment for</text>
<text x="668" y="412" fill="#374151" font-size="9">Manchester United is highly com…</text>
</g>
<g>
<rect x="660" y="484" width="180" height="56" rx="8" fill="#FBF3E0" stroke="#D4842A" stroke-width="1.5"/>
<text x="668" y="500" fill="#D4842A" font-size="11" font-weight="bold" font-family="monospace">P051</text>
<text x="832" y="500" fill="#D4842A" font-size="9" font-weight="bold" text-anchor="end">M</text>
<text x="668" y="516" fill="#374151" font-size="9">The longer sporting</text>
<text x="668" y="528" fill="#374151" font-size="9">underperformance continues, the…</text>
</g>
<g>
<rect x="870" y="20" width="180" height="56" rx="8" fill="#F3F4F6" stroke="#6B7280" stroke-width="1.5"/>
<text x="878" y="36" fill="#6B7280" font-size="11" font-weight="bold" font-family="monospace">P062</text>
<text x="1042" y="36" fill="#6B7280" font-size="9" font-weight="bold" text-anchor="end">F</text>
<text x="878" y="52" fill="#374151" font-size="9">Dan Ashworth left his role as</text>
<text x="878" y="64" fill="#374151" font-size="9">Sporting Director of Manchester…</text>
</g>
<g>
<rect x="870" y="136" width="180" height="56" rx="8" fill="#E5EEF1" stroke="#1A535C" stroke-width="1.5"/>
<text x="878" y="152" fill="#1A535C" font-size="11" font-weight="bold" font-family="monospace">P065</text>
<text x="1042" y="152" fill="#1A535C" font-size="9" font-weight="bold" text-anchor="end">V</text>
<text x="878" y="168" fill="#374151" font-size="9">The pattern of expensive,</text>
<text x="878" y="180" fill="#374151" font-size="9">short-cycle leadership decision…</text>
</g>
<g>
<rect x="870" y="252" width="180" height="56" rx="8" fill="#E5EEF1" stroke="#1A535C" stroke-width="1.5"/>
<text x="878" y="268" fill="#1A535C" font-size="11" font-weight="bold" font-family="monospace">P087</text>
<text x="1042" y="268" fill="#1A535C" font-size="9" font-weight="bold" text-anchor="end">V</text>
<text x="878" y="284" fill="#374151" font-size="9">Manchester United&apos;s</text>
<text x="878" y="296" fill="#374151" font-size="9">managerial/governance stability…</text>
</g>
<g>
<rect x="870" y="368" width="180" height="56" rx="8" fill="#E5EEF1" stroke="#1A535C" stroke-width="1.5"/>
<text x="878" y="384" fill="#1A535C" font-size="11" font-weight="bold" font-family="monospace">P089</text>
<text x="1042" y="384" fill="#1A535C" font-size="9" font-weight="bold" text-anchor="end">V</text>
<text x="878" y="400" fill="#374151" font-size="9">All other potential advantages</text>
<text x="878" y="412" fill="#374151" font-size="9">are either temporary (commercia…</text>
</g>
<g>
<rect x="870" y="484" width="180" height="56" rx="8" fill="#E1F1E9" stroke="#2E7D5B" stroke-width="1.5"/>
<text x="878" y="500" fill="#2E7D5B" font-size="11" font-weight="bold" font-family="monospace">P090</text>
<text x="1042" y="500" fill="#2E7D5B" font-size="9" font-weight="bold" text-anchor="end">P</text>
<text x="878" y="516" fill="#374151" font-size="9">Every recommendation must either</text>
<text x="878" y="528" fill="#374151" font-size="9">protect the brand or build new …</text>
</g>
<g>
<rect x="660" y="20" width="180" height="56" rx="8" fill="#F3F4F6" stroke="#6B7280" stroke-width="1.5"/>
<text x="668" y="36" fill="#6B7280" font-size="11" font-weight="bold" font-family="monospace">P029</text>
<text x="832" y="36" fill="#6B7280" font-size="9" font-weight="bold" text-anchor="end">F</text>
<text x="668" y="52" fill="#374151" font-size="9">Laurie Shaw moved to Liverpool</text>
<text x="668" y="64" fill="#374151" font-size="9">from Manchester City to strengt…</text>
</g>
<g>
<rect x="660" y="136" width="180" height="56" rx="8" fill="#E5EEF1" stroke="#1A535C" stroke-width="1.5"/>
<text x="668" y="152" fill="#1A535C" font-size="11" font-weight="bold" font-family="monospace">P031</text>
<text x="832" y="152" fill="#1A535C" font-size="9" font-weight="bold" text-anchor="end">V</text>
<text x="668" y="168" fill="#374151" font-size="9">United&apos;s rivals are building</text>
<text x="668" y="180" fill="#374151" font-size="9">superior decision-making archit…</text>
</g>
<g>
<rect x="450" y="252" width="180" height="56" rx="8" fill="#FBF3E0" stroke="#D4842A" stroke-width="1.5"/>
<text x="458" y="268" fill="#D4842A" font-size="11" font-weight="bold" font-family="monospace">P032</text>
<text x="622" y="268" fill="#D4842A" font-size="9" font-weight="bold" text-anchor="end">M</text>
<text x="458" y="284" fill="#374151" font-size="9">Competitive advantage in modern</text>
<text x="458" y="296" fill="#374151" font-size="9">football is increasingly a func…</text>
</g>
<g>
<rect x="450" y="368" width="180" height="56" rx="8" fill="#FBF3E0" stroke="#D4842A" stroke-width="1.5"/>
<text x="458" y="384" fill="#D4842A" font-size="11" font-weight="bold" font-family="monospace">P036</text>
<text x="622" y="384" fill="#D4842A" font-size="9" font-weight="bold" text-anchor="end">M</text>
<text x="458" y="400" fill="#374151" font-size="9">United cannot compete on</text>
<text x="458" y="412" fill="#374151" font-size="9">spending alone against sovereig…</text>
</g>
</g></svg>