<svg xmlns="http://www.w3.org/2000/svg" viewBox="0 0 1320 760" font-family="Helvetica, Arial, sans-serif" font-size="11">
<rect x="0" y="0" width="1320" height="760" fill="#FFFFFF"/>
<text x="660" y="18" font-size="13" font-weight="bold" text-anchor="middle" fill="#1E2A32">TMBA — ENTITY_23_TMBA_seed1</text>
<text x="660" y="34" font-size="10" text-anchor="middle" fill="#6B7280">AI TMBA · 184 nodes / 190 edges · 5 chains shown</text>
<g transform="translate(0, 44)">
<path d="M 425.0 192.0 L 425.0 222.0 L 375.9 252.0" fill="none" stroke="#9CA3AF" stroke-width="1.2"/>
<polygon points="0,-4 8,0 0,4" fill="#9CA3AF" transform="translate(375.9,252.0) rotate(148.6)"/>
<rect x="418.0" y="215.0" width="14" height="14" rx="3" fill="#FFFFFF" stroke="#9CA3AF" stroke-width="0.5"/>
<text x="425.0" y="225.0" text-anchor="middle" font-size="9" font-weight="bold" fill="#6B7280">S</text>
<path d="M 284.1 252.0 L 235.0 222.0 L 335.0 191.5" fill="none" stroke="#9CA3AF" stroke-width="1.2"/>
<polygon points="0,-4 8,0 0,4" fill="#9CA3AF" transform="translate(335.0,191.5) rotate(-17.0)"/>
<rect x="228.0" y="215.0" width="14" height="14" rx="3" fill="#FFFFFF" stroke="#9CA3AF" stroke-width="0.5"/>
<text x="235.0" y="225.0" text-anchor="middle" font-size="9" font-weight="bold" fill="#6B7280">S</text>
<path d="M 1170.0 76.0 L 1170.0 106.0 L 1170.0 136.0" fill="none" stroke="#9CA3AF" stroke-width="1.2"/>
<polygon points="0,-4 8,0 0,4" fill="#9CA3AF" transform="translate(1170.0,136.0) rotate(90.0)"/>
<rect x="1163.0" y="99.0" width="14" height="14" rx="3" fill="#FFFFFF" stroke="#9CA3AF" stroke-width="0.5"/>
<text x="1170.0" y="109.0" text-anchor="middle" font-size="9" font-weight="bold" fill="#6B7280">S</text>
<path d="M 1170.0 192.0 L 1170.0 222.0 L 1170.0 252.0" fill="none" stroke="#9CA3AF" stroke-width="1.2"/>
<polygon points="0,-4 8,0 0,4" fill="#9CA3AF" transform="translate(1170.0,252.0) rotate(90.0)"/>
<rect x="1163.0" y="215.0" width="14" height="14" rx="3" fill="#FFFFFF" stroke="#9CA3AF" stroke-width="0.5"/>
<text x="1170.0" y="225.0" text-anchor="middle" font-size="9" font-weight="bold" fill="#6B7280">W</text>
<path d="M 804.3 76.0 L 750.0 106.0 L 750.0 136.0" fill="none" stroke="#9CA3AF" stroke-width="1.2"/>
<polygon points="0,-4 8,0 0,4" fill="#9CA3AF" transform="translate(750.0,136.0) rotate(90.0)"/>
<rect x="743.0" y="99.0" width="14" height="14" rx="3" fill="#FFFFFF" stroke="#9CA3AF" stroke-width="0.5"/>
<text x="750.0" y="109.0" text-anchor="middle" font-size="9" font-weight="bold" fill="#6B7280">S</text>
<path d="M 928.6 76.0 L 1007.5 106.0 L 1007.5 164.0 L 1007.5 222.0 L 928.6 252.0" fill="none" stroke="#9CA3AF" stroke-width="1.2"/>
<polygon points="0,-4 8,0 0,4" fill="#9CA3AF" transform="translate(928.6,252.0) rotate(159.2)"/>
<rect x="1000.5" y="157.0" width="14" height="14" rx="3" fill="#FFFFFF" stroke="#9CA3AF" stroke-width="0.5"/>
<text x="1007.5" y="167.0" text-anchor="middle" font-size="9" font-weight="bold" fill="#6B7280">S</text>
<path d="M 750.0 192.0 L 750.0 222.0 L 804.3 252.0" fill="none" stroke="#9CA3AF" stroke-width="1.2"/>
<polygon points="0,-4 8,0 0,4" fill="#9CA3AF" transform="translate(804.3,252.0) rotate(28.9)"/>
<rect x="743.0" y="215.0" width="14" height="14" rx="3" fill="#FFFFFF" stroke="#9CA3AF" stroke-width="0.5"/>
<text x="750.0" y="225.0" text-anchor="middle" font-size="9" font-weight="bold" fill="#6B7280">S</text>
<path d="M 905.7 308.0 L 960.0 338.0 L 960.0 368.0" fill="none" stroke="#9CA3AF" stroke-width="1.2"/>
<polygon points="0,-4 8,0 0,4" fill="#9CA3AF" transform="translate(960.0,368.0) rotate(90.0)"/>
<rect x="953.0" y="331.0" width="14" height="14" rx="3" fill="#FFFFFF" stroke="#9CA3AF" stroke-width="0.5"/>
<text x="960.0" y="341.0" text-anchor="middle" font-size="9" font-weight="bold" fill="#6B7280">S</text>
<path d="M 960.0 424.0 L 960.0 454.0 L 960.0 484.0" fill="none" stroke="#9CA3AF" stroke-width="1.2"/>
<polygon points="0,-4 8,0 0,4" fill="#9CA3AF" transform="translate(960.0,484.0) rotate(90.0)"/>
<rect x="953.0" y="447.0" width="14" height="14" rx="3" fill="#FFFFFF" stroke="#9CA3AF" stroke-width="0.5"/>
<text x="960.0" y="457.0" text-anchor="middle" font-size="9" font-weight="bold" fill="#6B7280">J</text>
<path d="M 120.0 76.0 L 120.0 106.0 L 120.0 136.0" fill="none" stroke="#9CA3AF" stroke-width="1.2"/>
<polygon points="0,-4 8,0 0,4" fill="#9CA3AF" transform="translate(120.0,136.0) rotate(90.0)"/>
<rect x="113.0" y="99.0" width="14" height="14" rx="3" fill="#FFFFFF" stroke="#9CA3AF" stroke-width="0.5"/>
<text x="120.0" y="109.0" text-anchor="middle" font-size="9" font-weight="bold" fill="#6B7280">S</text>
<path d="M 120.0 192.0 L 120.0 222.0 L 120.0 252.0" fill="none" stroke="#9CA3AF" stroke-width="1.2"/>
<polygon points="0,-4 8,0 0,4" fill="#9CA3AF" transform="translate(120.0,252.0) rotate(90.0)"/>
<rect x="113.0" y="215.0" width="14" height="14" rx="3" fill="#FFFFFF" stroke="#9CA3AF" stroke-width="0.5"/>
<text x="120.0" y="225.0" text-anchor="middle" font-size="9" font-weight="bold" fill="#6B7280">S</text>
<path d="M 115.2 308.0 L 110.0 338.0 L 110.0 368.0" fill="none" stroke="#9CA3AF" stroke-width="1.2"/>
<polygon points="0,-4 8,0 0,4" fill="#9CA3AF" transform="translate(110.0,368.0) rotate(90.0)"/>
<rect x="103.0" y="331.0" width="14" height="14" rx="3" fill="#FFFFFF" stroke="#9CA3AF" stroke-width="0.5"/>
<text x="110.0" y="341.0" text-anchor="middle" font-size="9" font-weight="bold" fill="#6B7280">S</text>
<path d="M 1170.0 308.0 L 1170.0 338.0 L 1170.0 368.0" fill="none" stroke="#9CA3AF" stroke-width="1.2"/>
<polygon points="0,-4 8,0 0,4" fill="#9CA3AF" transform="translate(1170.0,368.0) rotate(90.0)"/>
<rect x="1163.0" y="331.0" width="14" height="14" rx="3" fill="#FFFFFF" stroke="#9CA3AF" stroke-width="0.5"/>
<text x="1170.0" y="341.0" text-anchor="middle" font-size="9" font-weight="bold" fill="#6B7280">S</text>
<path d="M 540.0 308.0 L 540.0 338.0 L 534.8 368.0" fill="none" stroke="#9CA3AF" stroke-width="1.2"/>
<polygon points="0,-4 8,0 0,4" fill="#9CA3AF" transform="translate(534.8,368.0) rotate(99.8)"/>
<rect x="533.0" y="331.0" width="14" height="14" rx="3" fill="#FFFFFF" stroke="#9CA3AF" stroke-width="0.5"/>
<text x="540.0" y="341.0" text-anchor="middle" font-size="9" font-weight="bold" fill="#6B7280">S</text>
<path d="M 1170.0 424.0 L 1170.0 454.0 L 1170.0 484.0" fill="none" stroke="#9CA3AF" stroke-width="1.2"/>
<polygon points="0,-4 8,0 0,4" fill="#9CA3AF" transform="translate(1170.0,484.0) rotate(90.0)"/>
<rect x="1163.0" y="447.0" width="14" height="14" rx="3" fill="#FFFFFF" stroke="#9CA3AF" stroke-width="0.5"/>
<text x="1170.0" y="457.0" text-anchor="middle" font-size="9" font-weight="bold" fill="#6B7280">J</text>
<path d="M 110.0 540.0 L 110.0 570.0 L 110.0 600.0" fill="none" stroke="#9CA3AF" stroke-width="1.2"/>
<polygon points="0,-4 8,0 0,4" fill="#9CA3AF" transform="translate(110.0,600.0) rotate(90.0)"/>
<rect x="103.0" y="563.0" width="14" height="14" rx="3" fill="#FFFFFF" stroke="#9CA3AF" stroke-width="0.5"/>
<text x="110.0" y="573.0" text-anchor="middle" font-size="9" font-weight="bold" fill="#6B7280">J</text>
<path d="M 530.0 424.0 L 530.0 454.0 L 530.0 484.0" fill="none" stroke="#9CA3AF" stroke-width="1.2"/>
<polygon points="0,-4 8,0 0,4" fill="#9CA3AF" transform="translate(530.0,484.0) rotate(90.0)"/>
<rect x="523.0" y="447.0" width="14" height="14" rx="3" fill="#FFFFFF" stroke="#9CA3AF" stroke-width="0.5"/>
<text x="530.0" y="457.0" text-anchor="middle" font-size="9" font-weight="bold" fill="#6B7280">S</text>
<path d="M 750.0 424.0 L 750.0 454.0 L 750.0 484.0" fill="none" stroke="#9CA3AF" stroke-width="1.2"/>
<polygon points="0,-4 8,0 0,4" fill="#9CA3AF" transform="translate(750.0,484.0) rotate(90.0)"/>
<rect x="743.0" y="447.0" width="14" height="14" rx="3" fill="#FFFFFF" stroke="#9CA3AF" stroke-width="0.5"/>
<text x="750.0" y="457.0" text-anchor="middle" font-size="9" font-weight="bold" fill="#6B7280">S</text>
<path d="M 750.0 540.0 L 750.0 570.0 L 750.0 600.0" fill="none" stroke="#9CA3AF" stroke-width="1.2"/>
<polygon points="0,-4 8,0 0,4" fill="#9CA3AF" transform="translate(750.0,600.0) rotate(90.0)"/>
<rect x="743.0" y="563.0" width="14" height="14" rx="3" fill="#FFFFFF" stroke="#9CA3AF" stroke-width="0.5"/>
<text x="750.0" y="573.0" text-anchor="middle" font-size="9" font-weight="bold" fill="#6B7280">S</text>
<path d="M 804.3 308.0 L 750.0 338.0 L 750.0 368.0" fill="none" stroke="#9CA3AF" stroke-width="1.2"/>
<polygon points="0,-4 8,0 0,4" fill="#9CA3AF" transform="translate(750.0,368.0) rotate(90.0)"/>
<rect x="743.0" y="331.0" width="14" height="14" rx="3" fill="#FFFFFF" stroke="#9CA3AF" stroke-width="0.5"/>
<text x="750.0" y="341.0" text-anchor="middle" font-size="9" font-weight="bold" fill="#6B7280">S</text>
<path d="M 110.0 424.0 L 110.0 454.0 L 110.0 484.0" fill="none" stroke="#9CA3AF" stroke-width="1.2"/>
<polygon points="0,-4 8,0 0,4" fill="#9CA3AF" transform="translate(110.0,484.0) rotate(90.0)"/>
<rect x="103.0" y="447.0" width="14" height="14" rx="3" fill="#FFFFFF" stroke="#9CA3AF" stroke-width="0.5"/>
<text x="110.0" y="457.0" text-anchor="middle" font-size="9" font-weight="bold" fill="#6B7280">S</text>
<path d="M 480.5 192.0 L 540.0 222.0 L 540.0 252.0" fill="none" stroke="#9CA3AF" stroke-width="1.2"/>
<polygon points="0,-4 8,0 0,4" fill="#9CA3AF" transform="translate(540.0,252.0) rotate(90.0)"/>
<rect x="533.0" y="215.0" width="14" height="14" rx="3" fill="#FFFFFF" stroke="#9CA3AF" stroke-width="0.5"/>
<text x="540.0" y="225.0" text-anchor="middle" font-size="9" font-weight="bold" fill="#6B7280">S</text>
<path d="M 210.0 306.1 L 320.0 338.0 L 440.0 371.1" fill="none" stroke="#9CA3AF" stroke-width="1.2"/>
<polygon points="0,-4 8,0 0,4" fill="#9CA3AF" transform="translate(440.0,371.1) rotate(15.4)"/>
<rect x="313.0" y="331.0" width="14" height="14" rx="3" fill="#FFFFFF" stroke="#9CA3AF" stroke-width="0.5"/>
<text x="320.0" y="341.0" text-anchor="middle" font-size="9" font-weight="bold" fill="#6B7280">S</text>
<g>
<rect x="30" y="20" width="180" height="56" rx="8" fill="#F3F4F6" stroke="#6B7280" stroke-width="1.5"/>
<text x="38" y="36" fill="#6B7280" font-size="11" font-weight="bold" font-family="monospace">P097</text>
<text x="202" y="36" fill="#6B7280" font-size="9" font-weight="bold" text-anchor="end">F</text>
<text x="38" y="52" fill="#374151" font-size="9">Manchester United&apos;s current</text>
<text x="38" y="64" fill="#374151" font-size="9">strategy involves a dual mandat…</text>
</g>
<g>
<rect x="30" y="136" width="180" height="56" rx="8" fill="#E5EEF1" stroke="#1A535C" stroke-width="1.5"/>
<text x="38" y="152" fill="#1A535C" font-size="11" font-weight="bold" font-family="monospace">P098</text>
<text x="202" y="152" fill="#1A535C" font-size="9" font-weight="bold" text-anchor="end">V</text>
<text x="38" y="168" fill="#374151" font-size="9">There is tension between</text>
<text x="38" y="180" fill="#374151" font-size="9">Manchester United&apos;s short-term …</text>
</g>
<g>
<rect x="30" y="252" width="180" height="56" rx="8" fill="#E5EEF1" stroke="#1A535C" stroke-width="1.5"/>
<text x="38" y="268" fill="#1A535C" font-size="11" font-weight="bold" font-family="monospace">P111</text>
<text x="202" y="268" fill="#1A535C" font-size="9" font-weight="bold" text-anchor="end">V</text>
<text x="38" y="284" fill="#374151" font-size="9">The hard S elements (Strategy,</text>
<text x="38" y="296" fill="#374151" font-size="9">Structure, Systems) are being d…</text>
</g>
<g>
<rect x="20" y="368" width="180" height="56" rx="8" fill="#FBF3E0" stroke="#D4842A" stroke-width="1.5"/>
<text x="28" y="384" fill="#D4842A" font-size="11" font-weight="bold" font-family="monospace">P112</text>
<text x="192" y="384" fill="#D4842A" font-size="9" font-weight="bold" text-anchor="end">M</text>
<text x="28" y="400" fill="#374151" font-size="9">Until a coherent cultural</text>
<text x="28" y="412" fill="#374151" font-size="9">identity is re-established conn…</text>
</g>
<g>
<rect x="20" y="484" width="180" height="56" rx="8" fill="#E5EEF1" stroke="#1A535C" stroke-width="1.5"/>
<text x="28" y="500" fill="#1A535C" font-size="11" font-weight="bold" font-family="monospace">P163</text>
<text x="192" y="500" fill="#1A535C" font-size="9" font-weight="bold" text-anchor="end">V</text>
<text x="28" y="516" fill="#374151" font-size="9">The 7-S analysis reveals a deep</text>
<text x="28" y="528" fill="#374151" font-size="9">cultural vacuum at Manchester U…</text>
</g>
<g>
<rect x="20" y="600" width="180" height="56" rx="8" fill="#E1F1E9" stroke="#2E7D5B" stroke-width="1.5"/>
<text x="28" y="616" fill="#2E7D5B" font-size="11" font-weight="bold" font-family="monospace">P165</text>
<text x="192" y="616" fill="#2E7D5B" font-size="9" font-weight="bold" text-anchor="end">P</text>
<text x="28" y="632" fill="#374151" font-size="9">Manchester United should</text>
<text x="28" y="644" fill="#374151" font-size="9">establish a formal Fan Advisory…</text>
</g>
<g>
<rect x="335" y="136" width="180" height="56" rx="8" fill="#F3F4F6" stroke="#6B7280" stroke-width="1.5"/>
<text x="343" y="152" fill="#6B7280" font-size="11" font-weight="bold" font-family="monospace">P021</text>
<text x="507" y="152" fill="#6B7280" font-size="9" font-weight="bold" text-anchor="end">F</text>
<text x="343" y="168" fill="#374151" font-size="9">Manchester United expects to</text>
<text x="343" y="180" fill="#374151" font-size="9">make cost savings of between £4…</text>
</g>
<g>
<rect x="240" y="252" width="180" height="56" rx="8" fill="#F3F4F6" stroke="#6B7280" stroke-width="1.5"/>
<text x="248" y="268" fill="#6B7280" font-size="11" font-weight="bold" font-family="monospace">P029</text>
<text x="412" y="268" fill="#6B7280" font-size="9" font-weight="bold" text-anchor="end">F</text>
<text x="248" y="284" fill="#374151" font-size="9">Manchester United&apos;s operating</text>
<text x="248" y="296" fill="#374151" font-size="9">costs fell by 4.5% year on year…</text>
</g>
<g>
<rect x="450" y="252" width="180" height="56" rx="8" fill="#E5EEF1" stroke="#1A535C" stroke-width="1.5"/>
<text x="458" y="268" fill="#1A535C" font-size="11" font-weight="bold" font-family="monospace">P118</text>
<text x="622" y="268" fill="#1A535C" font-size="9" font-weight="bold" text-anchor="end">V</text>
<text x="458" y="284" fill="#374151" font-size="9">INEOS&apos;s restructuring addresses</text>
<text x="458" y="296" fill="#374151" font-size="9">symptoms of the financial overh…</text>
</g>
<g>
<rect x="440" y="368" width="180" height="56" rx="8" fill="#E5EEF1" stroke="#1A535C" stroke-width="1.5"/>
<text x="448" y="384" fill="#1A535C" font-size="11" font-weight="bold" font-family="monospace">P177</text>
<text x="612" y="384" fill="#1A535C" font-size="9" font-weight="bold" text-anchor="end">V</text>
<text x="448" y="400" fill="#374151" font-size="9">Manchester United&apos;s crisis is</text>
<text x="448" y="412" fill="#374151" font-size="9">simultaneously financial, sport…</text>
</g>
<g>
<rect x="440" y="484" width="180" height="56" rx="8" fill="#E5EEF1" stroke="#1A535C" stroke-width="1.5"/>
<text x="448" y="500" fill="#1A535C" font-size="11" font-weight="bold" font-family="monospace">P183</text>
<text x="612" y="500" fill="#1A535C" font-size="9" font-weight="bold" text-anchor="end">V</text>
<text x="448" y="516" fill="#374151" font-size="9">The path forward for Manchester</text>
<text x="448" y="528" fill="#374151" font-size="9">United requires patience, disci…</text>
</g>
<g>
<rect x="765" y="20" width="180" height="56" rx="8" fill="#F3F4F6" stroke="#6B7280" stroke-width="1.5"/>
<text x="773" y="36" fill="#6B7280" font-size="11" font-weight="bold" font-family="monospace">P033</text>
<text x="937" y="36" fill="#6B7280" font-size="9" font-weight="bold" text-anchor="end">F</text>
<text x="773" y="52" fill="#374151" font-size="9">Manchester United has 41.4</text>
<text x="773" y="64" fill="#374151" font-size="9">million followers on Instagram …</text>
</g>
<g>
<rect x="660" y="136" width="180" height="56" rx="8" fill="#F3F4F6" stroke="#6B7280" stroke-width="1.5"/>
<text x="668" y="152" fill="#6B7280" font-size="11" font-weight="bold" font-family="monospace">P034</text>
<text x="832" y="152" fill="#6B7280" font-size="9" font-weight="bold" text-anchor="end">F</text>
<text x="668" y="168" fill="#374151" font-size="9">Manchester United ranks as the</text>
<text x="668" y="180" fill="#374151" font-size="9">most followed sports team world…</text>
</g>
<g>
<rect x="765" y="252" width="180" height="56" rx="8" fill="#E5EEF1" stroke="#1A535C" stroke-width="1.5"/>
<text x="773" y="268" fill="#1A535C" font-size="11" font-weight="bold" font-family="monospace">P085</text>
<text x="937" y="268" fill="#1A535C" font-size="9" font-weight="bold" text-anchor="end">V</text>
<text x="773" y="284" fill="#374151" font-size="9">Manchester United&apos;s global fan</text>
<text x="773" y="296" fill="#374151" font-size="9">base (1 billion+ claimed) meets…</text>
</g>
<g>
<rect x="660" y="368" width="180" height="56" rx="8" fill="#E5EEF1" stroke="#1A535C" stroke-width="1.5"/>
<text x="668" y="384" fill="#1A535C" font-size="11" font-weight="bold" font-family="monospace">P180</text>
<text x="832" y="384" fill="#1A535C" font-size="9" font-weight="bold" text-anchor="end">V</text>
<text x="668" y="400" fill="#374151" font-size="9">Manchester United possesses</text>
<text x="668" y="412" fill="#374151" font-size="9">genuinely rare and inimitable a…</text>
</g>
<g>
<rect x="660" y="484" width="180" height="56" rx="8" fill="#E5EEF1" stroke="#1A535C" stroke-width="1.5"/>
<text x="668" y="500" fill="#1A535C" font-size="11" font-weight="bold" font-family="monospace">P179</text>
<text x="832" y="500" fill="#1A535C" font-size="9" font-weight="bold" text-anchor="end">V</text>
<text x="668" y="516" fill="#374151" font-size="9">The foundations for Manchester</text>
<text x="668" y="528" fill="#374151" font-size="9">United&apos;s recovery are real.</text>
</g>
<g>
<rect x="660" y="600" width="180" height="56" rx="8" fill="#FBF3E0" stroke="#D4842A" stroke-width="1.5"/>
<text x="668" y="616" fill="#D4842A" font-size="11" font-weight="bold" font-family="monospace">P184</text>
<text x="832" y="616" fill="#D4842A" font-size="9" font-weight="bold" text-anchor="end">M</text>
<text x="668" y="632" fill="#374151" font-size="9">If INEOS can align strategy,</text>
<text x="668" y="644" fill="#374151" font-size="9">structure, systems, and shared …</text>
</g>
<g>
<rect x="870" y="368" width="180" height="56" rx="8" fill="#E5EEF1" stroke="#1A535C" stroke-width="1.5"/>
<text x="878" y="384" fill="#1A535C" font-size="11" font-weight="bold" font-family="monospace">P092</text>
<text x="1042" y="384" fill="#1A535C" font-size="9" font-weight="bold" text-anchor="end">V</text>
<text x="878" y="400" fill="#374151" font-size="9">Manchester United&apos;s most durable</text>
<text x="878" y="412" fill="#374151" font-size="9">VRIN resources are its global b…</text>
</g>
<g>
<rect x="870" y="484" width="180" height="56" rx="8" fill="#E1F1E9" stroke="#2E7D5B" stroke-width="1.5"/>
<text x="878" y="500" fill="#2E7D5B" font-size="11" font-weight="bold" font-family="monospace">P094</text>
<text x="1042" y="500" fill="#2E7D5B" font-size="9" font-weight="bold" text-anchor="end">P</text>
<text x="878" y="516" fill="#374151" font-size="9">The strategic imperative for</text>
<text x="878" y="528" fill="#374151" font-size="9">Manchester United is to protect…</text>
</g>
<g>
<rect x="1080" y="20" width="180" height="56" rx="8" fill="#F3F4F6" stroke="#6B7280" stroke-width="1.5"/>
<text x="1088" y="36" fill="#6B7280" font-size="11" font-weight="bold" font-family="monospace">P031</text>
<text x="1252" y="36" fill="#6B7280" font-size="9" font-weight="bold" text-anchor="end">F</text>
<text x="1088" y="52" fill="#374151" font-size="9">A £10 million deduction will be</text>
<text x="1088" y="64" fill="#374151" font-size="9">applied to the Adidas contract …</text>
</g>
<g>
<rect x="1080" y="136" width="180" height="56" rx="8" fill="#FBF3E0" stroke="#D4842A" stroke-width="1.5"/>
<text x="1088" y="152" fill="#D4842A" font-size="11" font-weight="bold" font-family="monospace">P032</text>
<text x="1252" y="152" fill="#D4842A" font-size="9" font-weight="bold" text-anchor="end">M</text>
<text x="1088" y="168" fill="#374151" font-size="9">On-pitch failure directly erodes</text>
<text x="1088" y="180" fill="#374151" font-size="9">commercial revenue, as demonstr…</text>
</g>
<g>
<rect x="1080" y="252" width="180" height="56" rx="8" fill="#FBF3E0" stroke="#D4842A" stroke-width="1.5"/>
<text x="1088" y="268" fill="#D4842A" font-size="11" font-weight="bold" font-family="monospace">P113</text>
<text x="1252" y="268" fill="#D4842A" font-size="9" font-weight="bold" text-anchor="end">M</text>
<text x="1088" y="284" fill="#374151" font-size="9">Poor on-pitch performance</text>
<text x="1088" y="296" fill="#374151" font-size="9">reduces broadcasting revenue by…</text>
</g>
<g>
<rect x="1080" y="368" width="180" height="56" rx="8" fill="#E5EEF1" stroke="#1A535C" stroke-width="1.5"/>
<text x="1088" y="384" fill="#1A535C" font-size="11" font-weight="bold" font-family="monospace">P142</text>
<text x="1252" y="384" fill="#1A535C" font-size="9" font-weight="bold" text-anchor="end">V</text>
<text x="1088" y="400" fill="#374151" font-size="9">The performance-revenue doom</text>
<text x="1088" y="412" fill="#374151" font-size="9">loop can only be broken by rest…</text>
</g>
<g>
<rect x="1080" y="484" width="180" height="56" rx="8" fill="#E1F1E9" stroke="#2E7D5B" stroke-width="1.5"/>
<text x="1088" y="500" fill="#2E7D5B" font-size="11" font-weight="bold" font-family="monospace">P137</text>
<text x="1252" y="500" fill="#2E7D5B" font-size="9" font-weight="bold" text-anchor="end">P</text>
<text x="1088" y="516" fill="#374151" font-size="9">Manchester United should set</text>
<text x="1088" y="528" fill="#374151" font-size="9">Champions League qualification …</text>
</g>
</g></svg>