<svg xmlns="http://www.w3.org/2000/svg" viewBox="0 0 890 1108" font-family="Helvetica, Arial, sans-serif" font-size="11">
<rect x="0" y="0" width="890" height="1108" fill="#FFFFFF"/>
<text x="445" y="18" font-size="13" font-weight="bold" text-anchor="middle" fill="#1E2A32">E3 — ENTITY_23_E3_seed1</text>
<text x="445" y="34" font-size="10" text-anchor="middle" fill="#6B7280">AI E3 · 175 nodes / 165 edges · 5 chains shown</text>
<g transform="translate(0, 44)">
<path d="M 740.0 76.0 L 740.0 106.0 L 740.0 136.0" fill="none" stroke="#9CA3AF" stroke-width="1.2"/>
<polygon points="0,-4 8,0 0,4" fill="#9CA3AF" transform="translate(740.0,136.0) rotate(90.0)"/>
<rect x="733.0" y="99.0" width="14" height="14" rx="3" fill="#FFFFFF" stroke="#9CA3AF" stroke-width="0.5"/>
<text x="740.0" y="109.0" text-anchor="middle" font-size="9" font-weight="bold" fill="#6B7280">S</text>
<path d="M 740.0 192.0 L 740.0 222.0 L 740.0 252.0" fill="none" stroke="#9CA3AF" stroke-width="1.2"/>
<polygon points="0,-4 8,0 0,4" fill="#9CA3AF" transform="translate(740.0,252.0) rotate(90.0)"/>
<rect x="733.0" y="215.0" width="14" height="14" rx="3" fill="#FFFFFF" stroke="#9CA3AF" stroke-width="0.5"/>
<text x="740.0" y="225.0" text-anchor="middle" font-size="9" font-weight="bold" fill="#6B7280">S</text>
<path d="M 740.0 308.0 L 740.0 338.0 L 740.0 368.0" fill="none" stroke="#9CA3AF" stroke-width="1.2"/>
<polygon points="0,-4 8,0 0,4" fill="#9CA3AF" transform="translate(740.0,368.0) rotate(90.0)"/>
<rect x="733.0" y="331.0" width="14" height="14" rx="3" fill="#FFFFFF" stroke="#9CA3AF" stroke-width="0.5"/>
<text x="740.0" y="341.0" text-anchor="middle" font-size="9" font-weight="bold" fill="#6B7280">S</text>
<path d="M 110.0 76.0 L 110.0 106.0 L 110.0 136.0" fill="none" stroke="#9CA3AF" stroke-width="1.2"/>
<polygon points="0,-4 8,0 0,4" fill="#9CA3AF" transform="translate(110.0,136.0) rotate(90.0)"/>
<rect x="103.0" y="99.0" width="14" height="14" rx="3" fill="#FFFFFF" stroke="#9CA3AF" stroke-width="0.5"/>
<text x="110.0" y="109.0" text-anchor="middle" font-size="9" font-weight="bold" fill="#6B7280">S</text>
<path d="M 110.0 192.0 L 110.0 222.0 L 110.0 252.0" fill="none" stroke="#9CA3AF" stroke-width="1.2"/>
<polygon points="0,-4 8,0 0,4" fill="#9CA3AF" transform="translate(110.0,252.0) rotate(90.0)"/>
<rect x="103.0" y="215.0" width="14" height="14" rx="3" fill="#FFFFFF" stroke="#9CA3AF" stroke-width="0.5"/>
<text x="110.0" y="225.0" text-anchor="middle" font-size="9" font-weight="bold" fill="#6B7280">S</text>
<path d="M 110.0 424.0 L 110.0 454.0 L 110.0 484.0" fill="none" stroke="#9CA3AF" stroke-width="1.2"/>
<polygon points="0,-4 8,0 0,4" fill="#9CA3AF" transform="translate(110.0,484.0) rotate(90.0)"/>
<rect x="103.0" y="447.0" width="14" height="14" rx="3" fill="#FFFFFF" stroke="#9CA3AF" stroke-width="0.5"/>
<text x="110.0" y="457.0" text-anchor="middle" font-size="9" font-weight="bold" fill="#6B7280">S</text>
<path d="M 110.0 540.0 L 110.0 570.0 L 110.0 600.0" fill="none" stroke="#9CA3AF" stroke-width="1.2"/>
<polygon points="0,-4 8,0 0,4" fill="#9CA3AF" transform="translate(110.0,600.0) rotate(90.0)"/>
<rect x="103.0" y="563.0" width="14" height="14" rx="3" fill="#FFFFFF" stroke="#9CA3AF" stroke-width="0.5"/>
<text x="110.0" y="573.0" text-anchor="middle" font-size="9" font-weight="bold" fill="#6B7280">S</text>
<path d="M 110.0 656.0 L 110.0 686.0 L 110.0 716.0" fill="none" stroke="#9CA3AF" stroke-width="1.2"/>
<polygon points="0,-4 8,0 0,4" fill="#9CA3AF" transform="translate(110.0,716.0) rotate(90.0)"/>
<rect x="103.0" y="679.0" width="14" height="14" rx="3" fill="#FFFFFF" stroke="#9CA3AF" stroke-width="0.5"/>
<text x="110.0" y="689.0" text-anchor="middle" font-size="9" font-weight="bold" fill="#6B7280">S</text>
<path d="M 110.0 772.0 L 110.0 802.0 L 110.0 832.0" fill="none" stroke="#9CA3AF" stroke-width="1.2"/>
<polygon points="0,-4 8,0 0,4" fill="#9CA3AF" transform="translate(110.0,832.0) rotate(90.0)"/>
<rect x="103.0" y="795.0" width="14" height="14" rx="3" fill="#FFFFFF" stroke="#9CA3AF" stroke-width="0.5"/>
<text x="110.0" y="805.0" text-anchor="middle" font-size="9" font-weight="bold" fill="#6B7280">S</text>
<path d="M 530.0 76.0 L 530.0 106.0 L 530.0 136.0" fill="none" stroke="#9CA3AF" stroke-width="1.2"/>
<polygon points="0,-4 8,0 0,4" fill="#9CA3AF" transform="translate(530.0,136.0) rotate(90.0)"/>
<rect x="523.0" y="99.0" width="14" height="14" rx="3" fill="#FFFFFF" stroke="#9CA3AF" stroke-width="0.5"/>
<text x="530.0" y="109.0" text-anchor="middle" font-size="9" font-weight="bold" fill="#6B7280">S</text>
<path d="M 530.0 192.0 L 530.0 222.0 L 530.0 252.0" fill="none" stroke="#9CA3AF" stroke-width="1.2"/>
<polygon points="0,-4 8,0 0,4" fill="#9CA3AF" transform="translate(530.0,252.0) rotate(90.0)"/>
<rect x="523.0" y="215.0" width="14" height="14" rx="3" fill="#FFFFFF" stroke="#9CA3AF" stroke-width="0.5"/>
<text x="530.0" y="225.0" text-anchor="middle" font-size="9" font-weight="bold" fill="#6B7280">S</text>
<path d="M 530.0 308.0 L 530.0 338.0 L 530.0 368.0" fill="none" stroke="#9CA3AF" stroke-width="1.2"/>
<polygon points="0,-4 8,0 0,4" fill="#9CA3AF" transform="translate(530.0,368.0) rotate(90.0)"/>
<rect x="523.0" y="331.0" width="14" height="14" rx="3" fill="#FFFFFF" stroke="#9CA3AF" stroke-width="0.5"/>
<text x="530.0" y="341.0" text-anchor="middle" font-size="9" font-weight="bold" fill="#6B7280">S</text>
<path d="M 530.0 424.0 L 530.0 454.0 L 530.0 484.0" fill="none" stroke="#9CA3AF" stroke-width="1.2"/>
<polygon points="0,-4 8,0 0,4" fill="#9CA3AF" transform="translate(530.0,484.0) rotate(90.0)"/>
<rect x="523.0" y="447.0" width="14" height="14" rx="3" fill="#FFFFFF" stroke="#9CA3AF" stroke-width="0.5"/>
<text x="530.0" y="457.0" text-anchor="middle" font-size="9" font-weight="bold" fill="#6B7280">S</text>
<path d="M 530.0 540.0 L 530.0 570.0 L 530.0 600.0" fill="none" stroke="#9CA3AF" stroke-width="1.2"/>
<polygon points="0,-4 8,0 0,4" fill="#9CA3AF" transform="translate(530.0,600.0) rotate(90.0)"/>
<rect x="523.0" y="563.0" width="14" height="14" rx="3" fill="#FFFFFF" stroke="#9CA3AF" stroke-width="0.5"/>
<text x="530.0" y="573.0" text-anchor="middle" font-size="9" font-weight="bold" fill="#6B7280">S</text>
<path d="M 110.0 888.0 L 110.0 918.0 L 110.0 948.0" fill="none" stroke="#9CA3AF" stroke-width="1.2"/>
<polygon points="0,-4 8,0 0,4" fill="#9CA3AF" transform="translate(110.0,948.0) rotate(90.0)"/>
<rect x="103.0" y="911.0" width="14" height="14" rx="3" fill="#FFFFFF" stroke="#9CA3AF" stroke-width="0.5"/>
<text x="110.0" y="921.0" text-anchor="middle" font-size="9" font-weight="bold" fill="#6B7280">S</text>
<path d="M 620.0 652.9 L 740.0 686.0 L 740.0 716.0" fill="none" stroke="#9CA3AF" stroke-width="1.2"/>
<polygon points="0,-4 8,0 0,4" fill="#9CA3AF" transform="translate(740.0,716.0) rotate(90.0)"/>
<rect x="733.0" y="679.0" width="14" height="14" rx="3" fill="#FFFFFF" stroke="#9CA3AF" stroke-width="0.5"/>
<text x="740.0" y="689.0" text-anchor="middle" font-size="9" font-weight="bold" fill="#6B7280">J</text>
<path d="M 530.0 656.0 L 530.0 686.0 L 530.0 716.0" fill="none" stroke="#9CA3AF" stroke-width="1.2"/>
<polygon points="0,-4 8,0 0,4" fill="#9CA3AF" transform="translate(530.0,716.0) rotate(90.0)"/>
<rect x="523.0" y="679.0" width="14" height="14" rx="3" fill="#FFFFFF" stroke="#9CA3AF" stroke-width="0.5"/>
<text x="530.0" y="689.0" text-anchor="middle" font-size="9" font-weight="bold" fill="#6B7280">J</text>
<path d="M 440.0 652.9 L 320.0 686.0 L 320.0 716.0" fill="none" stroke="#9CA3AF" stroke-width="1.2"/>
<polygon points="0,-4 8,0 0,4" fill="#9CA3AF" transform="translate(320.0,716.0) rotate(90.0)"/>
<rect x="313.0" y="679.0" width="14" height="14" rx="3" fill="#FFFFFF" stroke="#9CA3AF" stroke-width="0.5"/>
<text x="320.0" y="689.0" text-anchor="middle" font-size="9" font-weight="bold" fill="#6B7280">J</text>
<path d="M 110.0 308.0 L 110.0 338.0 L 110.0 368.0" fill="none" stroke="#9CA3AF" stroke-width="1.2"/>
<polygon points="0,-4 8,0 0,4" fill="#9CA3AF" transform="translate(110.0,368.0) rotate(90.0)"/>
<rect x="103.0" y="331.0" width="14" height="14" rx="3" fill="#FFFFFF" stroke="#9CA3AF" stroke-width="0.5"/>
<text x="110.0" y="341.0" text-anchor="middle" font-size="9" font-weight="bold" fill="#6B7280">S</text>
<g>
<rect x="20" y="20" width="180" height="56" rx="8" fill="#F3F4F6" stroke="#6B7280" stroke-width="1.5"/>
<text x="28" y="36" fill="#6B7280" font-size="11" font-weight="bold" font-family="monospace">P040</text>
<text x="192" y="36" fill="#6B7280" font-size="9" font-weight="bold" text-anchor="end">F</text>
<text x="28" y="52" fill="#374151" font-size="9">An internal audit of Manchester</text>
<text x="28" y="64" fill="#374151" font-size="9">United identified excessive ove…</text>
</g>
<g>
<rect x="20" y="136" width="180" height="56" rx="8" fill="#FBF3E0" stroke="#D4842A" stroke-width="1.5"/>
<text x="28" y="152" fill="#D4842A" font-size="11" font-weight="bold" font-family="monospace">P041</text>
<text x="192" y="152" fill="#D4842A" font-size="9" font-weight="bold" text-anchor="end">M</text>
<text x="28" y="168" fill="#374151" font-size="9">Manchester United&apos;s historically</text>
<text x="28" y="180" fill="#374151" font-size="9">weak transfer governance allowe…</text>
</g>
<g>
<rect x="20" y="252" width="180" height="56" rx="8" fill="#E5EEF1" stroke="#1A535C" stroke-width="1.5"/>
<text x="28" y="268" fill="#1A535C" font-size="11" font-weight="bold" font-family="monospace">P043</text>
<text x="192" y="268" fill="#1A535C" font-size="9" font-weight="bold" text-anchor="end">V</text>
<text x="28" y="284" fill="#374151" font-size="9">Manchester United&apos;s</text>
<text x="28" y="296" fill="#374151" font-size="9">wage-to-revenue ratio still exc…</text>
</g>
<g>
<rect x="20" y="368" width="180" height="56" rx="8" fill="#E5EEF1" stroke="#1A535C" stroke-width="1.5"/>
<text x="28" y="384" fill="#1A535C" font-size="11" font-weight="bold" font-family="monospace">P095</text>
<text x="192" y="384" fill="#1A535C" font-size="9" font-weight="bold" text-anchor="end">V</text>
<text x="28" y="400" fill="#374151" font-size="9">Manchester United&apos;s transfer and</text>
<text x="28" y="412" fill="#374151" font-size="9">recruitment systems have been c…</text>
</g>
<g>
<rect x="20" y="484" width="180" height="56" rx="8" fill="#E5EEF1" stroke="#1A535C" stroke-width="1.5"/>
<text x="28" y="500" fill="#1A535C" font-size="11" font-weight="bold" font-family="monospace">P112</text>
<text x="192" y="500" fill="#1A535C" font-size="9" font-weight="bold" text-anchor="end">V</text>
<text x="28" y="516" fill="#374151" font-size="9">Strategy is reactive; Structure</text>
<text x="28" y="528" fill="#374151" font-size="9">is split between competing owne…</text>
</g>
<g>
<rect x="20" y="600" width="180" height="56" rx="8" fill="#E5EEF1" stroke="#1A535C" stroke-width="1.5"/>
<text x="28" y="616" fill="#1A535C" font-size="11" font-weight="bold" font-family="monospace">P111</text>
<text x="192" y="616" fill="#1A535C" font-size="9" font-weight="bold" text-anchor="end">V</text>
<text x="28" y="632" fill="#374151" font-size="9">All seven elements of the</text>
<text x="28" y="644" fill="#374151" font-size="9">McKinsey 7-S framework are misa…</text>
</g>
<g>
<rect x="20" y="716" width="180" height="56" rx="8" fill="#E5EEF1" stroke="#1A535C" stroke-width="1.5"/>
<text x="28" y="732" fill="#1A535C" font-size="11" font-weight="bold" font-family="monospace">P113</text>
<text x="192" y="732" fill="#1A535C" font-size="9" font-weight="bold" text-anchor="end">V</text>
<text x="28" y="748" fill="#374151" font-size="9">The 7-S analysis confirms that</text>
<text x="28" y="760" fill="#374151" font-size="9">the problem at Manchester Unite…</text>
</g>
<g>
<rect x="20" y="832" width="180" height="56" rx="8" fill="#F3F4F6" stroke="#6B7280" stroke-width="1.5"/>
<text x="28" y="848" fill="#6B7280" font-size="11" font-weight="bold" font-family="monospace">P114</text>
<text x="192" y="848" fill="#6B7280" font-size="9" font-weight="bold" text-anchor="end">F</text>
<text x="28" y="864" fill="#374151" font-size="9">The three analytical frameworks</text>
<text x="28" y="876" fill="#374151" font-size="9">converge on a single structural…</text>
</g>
<g>
<rect x="20" y="948" width="180" height="56" rx="8" fill="#FBF3E0" stroke="#D4842A" stroke-width="1.5"/>
<text x="28" y="964" fill="#D4842A" font-size="11" font-weight="bold" font-family="monospace">P003</text>
<text x="192" y="964" fill="#D4842A" font-size="9" font-weight="bold" text-anchor="end">M</text>
<text x="28" y="980" fill="#374151" font-size="9">The paradox of on-pitch decline</text>
<text x="28" y="992" fill="#374151" font-size="9">alongside commercial preservati…</text>
</g>
<g>
<rect x="440" y="20" width="180" height="56" rx="8" fill="#FBF3E0" stroke="#D4842A" stroke-width="1.5"/>
<text x="448" y="36" fill="#D4842A" font-size="11" font-weight="bold" font-family="monospace">P116</text>
<text x="612" y="36" fill="#D4842A" font-size="9" font-weight="bold" text-anchor="end">M</text>
<text x="448" y="52" fill="#374151" font-size="9">Over £1bn in interest payments</text>
<text x="448" y="64" fill="#374151" font-size="9">since 2005 represents capital t…</text>
</g>
<g>
<rect x="440" y="136" width="180" height="56" rx="8" fill="#F3F4F6" stroke="#6B7280" stroke-width="1.5"/>
<text x="448" y="152" fill="#6B7280" font-size="11" font-weight="bold" font-family="monospace">P117</text>
<text x="612" y="152" fill="#6B7280" font-size="9" font-weight="bold" text-anchor="end">F</text>
<text x="448" y="168" fill="#374151" font-size="9">The 15th-place finish in 2024–25</text>
<text x="448" y="180" fill="#374151" font-size="9">was Manchester United&apos;s lowest …</text>
</g>
<g>
<rect x="440" y="252" width="180" height="56" rx="8" fill="#F3F4F6" stroke="#6B7280" stroke-width="1.5"/>
<text x="448" y="268" fill="#6B7280" font-size="11" font-weight="bold" font-family="monospace">P118</text>
<text x="612" y="268" fill="#6B7280" font-size="9" font-weight="bold" text-anchor="end">F</text>
<text x="448" y="284" fill="#374151" font-size="9">Broadcasting revenue fell £48.9m</text>
<text x="448" y="296" fill="#374151" font-size="9">in 2024–25 due to Europa League…</text>
</g>
<g>
<rect x="440" y="368" width="180" height="56" rx="8" fill="#F3F4F6" stroke="#6B7280" stroke-width="1.5"/>
<text x="448" y="384" fill="#6B7280" font-size="11" font-weight="bold" font-family="monospace">P119</text>
<text x="612" y="384" fill="#6B7280" font-size="9" font-weight="bold" text-anchor="end">F</text>
<text x="448" y="400" fill="#374151" font-size="9">Manchester United&apos;s total net</text>
<text x="448" y="412" fill="#374151" font-size="9">debt broke $1bn while the club …</text>
</g>
<g>
<rect x="440" y="484" width="180" height="56" rx="8" fill="#FBF3E0" stroke="#D4842A" stroke-width="1.5"/>
<text x="448" y="500" fill="#D4842A" font-size="11" font-weight="bold" font-family="monospace">P122</text>
<text x="612" y="500" fill="#D4842A" font-size="9" font-weight="bold" text-anchor="end">M</text>
<text x="448" y="516" fill="#374151" font-size="9">The actions taken to address</text>
<text x="448" y="528" fill="#374151" font-size="9">financial pressure — cost-cutti…</text>
</g>
<g>
<rect x="440" y="600" width="180" height="56" rx="8" fill="#E5EEF1" stroke="#1A535C" stroke-width="1.5"/>
<text x="448" y="616" fill="#1A535C" font-size="11" font-weight="bold" font-family="monospace">P123</text>
<text x="612" y="616" fill="#1A535C" font-size="9" font-weight="bold" text-anchor="end">V</text>
<text x="448" y="632" fill="#374151" font-size="9">Breaking the strategic trap</text>
<text x="448" y="644" fill="#374151" font-size="9">cycle requires structural, not …</text>
</g>
<g>
<rect x="650" y="716" width="180" height="56" rx="8" fill="#E1F1E9" stroke="#2E7D5B" stroke-width="1.5"/>
<text x="658" y="732" fill="#2E7D5B" font-size="11" font-weight="bold" font-family="monospace">P138</text>
<text x="822" y="732" fill="#2E7D5B" font-size="9" font-weight="bold" text-anchor="end">P</text>
<text x="658" y="748" fill="#374151" font-size="9">INEOS should negotiate to</text>
<text x="658" y="760" fill="#374151" font-size="9">acquire a controlling stake, or…</text>
</g>
<g>
<rect x="440" y="716" width="180" height="56" rx="8" fill="#E1F1E9" stroke="#2E7D5B" stroke-width="1.5"/>
<text x="448" y="732" fill="#2E7D5B" font-size="11" font-weight="bold" font-family="monospace">P145</text>
<text x="612" y="732" fill="#2E7D5B" font-size="9" font-weight="bold" text-anchor="end">P</text>
<text x="448" y="748" fill="#374151" font-size="9">Manchester United should reduce</text>
<text x="448" y="760" fill="#374151" font-size="9">net debt from £749m to below £3…</text>
</g>
<g>
<rect x="230" y="716" width="180" height="56" rx="8" fill="#E1F1E9" stroke="#2E7D5B" stroke-width="1.5"/>
<text x="238" y="732" fill="#2E7D5B" font-size="11" font-weight="bold" font-family="monospace">P152</text>
<text x="402" y="732" fill="#2E7D5B" font-size="9" font-weight="bold" text-anchor="end">P</text>
<text x="238" y="748" fill="#374151" font-size="9">Manchester United should commit</text>
<text x="238" y="760" fill="#374151" font-size="9">to a minimum five-year sporting…</text>
</g>
<g>
<rect x="650" y="20" width="180" height="56" rx="8" fill="#F3F4F6" stroke="#6B7280" stroke-width="1.5"/>
<text x="658" y="36" fill="#6B7280" font-size="11" font-weight="bold" font-family="monospace">P028</text>
<text x="822" y="36" fill="#6B7280" font-size="9" font-weight="bold" text-anchor="end">F</text>
<text x="658" y="52" fill="#374151" font-size="9">Manchester City&apos;s wage bill in</text>
<text x="658" y="64" fill="#374151" font-size="9">2024–25 was £223.7m.</text>
</g>
<g>
<rect x="650" y="136" width="180" height="56" rx="8" fill="#E5EEF1" stroke="#1A535C" stroke-width="1.5"/>
<text x="658" y="152" fill="#1A535C" font-size="11" font-weight="bold" font-family="monospace">P031</text>
<text x="822" y="152" fill="#1A535C" font-size="9" font-weight="bold" text-anchor="end">V</text>
<text x="658" y="168" fill="#374151" font-size="9">Manchester United finished 15th</text>
<text x="658" y="180" fill="#374151" font-size="9">in 2024–25 despite having the s…</text>
</g>
<g>
<rect x="650" y="252" width="180" height="56" rx="8" fill="#E5EEF1" stroke="#1A535C" stroke-width="1.5"/>
<text x="658" y="268" fill="#1A535C" font-size="11" font-weight="bold" font-family="monospace">P032</text>
<text x="822" y="268" fill="#1A535C" font-size="9" font-weight="bold" text-anchor="end">V</text>
<text x="658" y="284" fill="#374151" font-size="9">Financial inputs no longer</text>
<text x="658" y="296" fill="#374151" font-size="9">reliably convert into sporting …</text>
</g>
<g>
<rect x="650" y="368" width="180" height="56" rx="8" fill="#E5EEF1" stroke="#1A535C" stroke-width="1.5"/>
<text x="658" y="384" fill="#1A535C" font-size="11" font-weight="bold" font-family="monospace">P034</text>
<text x="822" y="384" fill="#1A535C" font-size="9" font-weight="bold" text-anchor="end">V</text>
<text x="658" y="400" fill="#374151" font-size="9">Competitive rivalry in the</text>
<text x="658" y="412" fill="#374151" font-size="9">Premier League is not merely ab…</text>
</g>
</g></svg>