<svg xmlns="http://www.w3.org/2000/svg" viewBox="0 0 995 1108" font-family="Helvetica, Arial, sans-serif" font-size="11">
<rect x="0" y="0" width="995" height="1108" fill="#FFFFFF"/>
<text x="497.5" y="18" font-size="13" font-weight="bold" text-anchor="middle" fill="#1E2A32">Human — ENTITY_23_human</text>
<text x="497.5" y="34" font-size="10" text-anchor="middle" fill="#6B7280">human MBA report · 96 nodes / 105 edges · 5 chains shown</text>
<g transform="translate(0, 44)">
<path d="M 110.0 772.0 L 110.0 802.0 L 110.0 832.0" fill="none" stroke="#9CA3AF" stroke-width="1.2"/>
<polygon points="0,-4 8,0 0,4" fill="#9CA3AF" transform="translate(110.0,832.0) rotate(90.0)"/>
<rect x="103.0" y="795.0" width="14" height="14" rx="3" fill="#FFFFFF" stroke="#9CA3AF" stroke-width="0.5"/>
<text x="110.0" y="805.0" text-anchor="middle" font-size="9" font-weight="bold" fill="#6B7280">S</text>
<path d="M 110.0 888.0 L 110.0 918.0 L 110.0 948.0" fill="none" stroke="#9CA3AF" stroke-width="1.2"/>
<polygon points="0,-4 8,0 0,4" fill="#9CA3AF" transform="translate(110.0,948.0) rotate(90.0)"/>
<rect x="103.0" y="911.0" width="14" height="14" rx="3" fill="#FFFFFF" stroke="#9CA3AF" stroke-width="0.5"/>
<text x="110.0" y="921.0" text-anchor="middle" font-size="9" font-weight="bold" fill="#6B7280">S</text>
<path d="M 215.0 424.0 L 215.0 454.0 L 215.0 484.0" fill="none" stroke="#9CA3AF" stroke-width="1.2"/>
<polygon points="0,-4 8,0 0,4" fill="#9CA3AF" transform="translate(215.0,484.0) rotate(90.0)"/>
<rect x="208.0" y="447.0" width="14" height="14" rx="3" fill="#FFFFFF" stroke="#9CA3AF" stroke-width="0.5"/>
<text x="215.0" y="457.0" text-anchor="middle" font-size="9" font-weight="bold" fill="#6B7280">S</text>
<path d="M 215.0 308.0 L 215.0 338.0 L 215.0 368.0" fill="none" stroke="#9CA3AF" stroke-width="1.2"/>
<polygon points="0,-4 8,0 0,4" fill="#9CA3AF" transform="translate(215.0,368.0) rotate(90.0)"/>
<rect x="208.0" y="331.0" width="14" height="14" rx="3" fill="#FFFFFF" stroke="#9CA3AF" stroke-width="0.5"/>
<text x="215.0" y="341.0" text-anchor="middle" font-size="9" font-weight="bold" fill="#6B7280">W</text>
<path d="M 215.0 76.0 L 215.0 106.0 L 215.0 136.0" fill="none" stroke="#9CA3AF" stroke-width="1.2"/>
<polygon points="0,-4 8,0 0,4" fill="#9CA3AF" transform="translate(215.0,136.0) rotate(90.0)"/>
<rect x="208.0" y="99.0" width="14" height="14" rx="3" fill="#FFFFFF" stroke="#9CA3AF" stroke-width="0.5"/>
<text x="215.0" y="109.0" text-anchor="middle" font-size="9" font-weight="bold" fill="#6B7280">S</text>
<path d="M 215.0 192.0 L 215.0 222.0 L 215.0 252.0" fill="none" stroke="#9CA3AF" stroke-width="1.2"/>
<polygon points="0,-4 8,0 0,4" fill="#9CA3AF" transform="translate(215.0,252.0) rotate(90.0)"/>
<rect x="208.0" y="215.0" width="14" height="14" rx="3" fill="#FFFFFF" stroke="#9CA3AF" stroke-width="0.5"/>
<text x="215.0" y="225.0" text-anchor="middle" font-size="9" font-weight="bold" fill="#6B7280">S</text>
<path d="M 265.7 656.0 L 320.0 686.0 L 320.0 716.0" fill="none" stroke="#9CA3AF" stroke-width="1.2"/>
<polygon points="0,-4 8,0 0,4" fill="#9CA3AF" transform="translate(320.0,716.0) rotate(90.0)"/>
<rect x="313.0" y="679.0" width="14" height="14" rx="3" fill="#FFFFFF" stroke="#9CA3AF" stroke-width="0.5"/>
<text x="320.0" y="689.0" text-anchor="middle" font-size="9" font-weight="bold" fill="#6B7280">S</text>
<path d="M 215.0 540.0 L 215.0 570.0 L 215.0 600.0" fill="none" stroke="#9CA3AF" stroke-width="1.2"/>
<polygon points="0,-4 8,0 0,4" fill="#9CA3AF" transform="translate(215.0,600.0) rotate(90.0)"/>
<rect x="208.0" y="563.0" width="14" height="14" rx="3" fill="#FFFFFF" stroke="#9CA3AF" stroke-width="0.5"/>
<text x="215.0" y="573.0" text-anchor="middle" font-size="9" font-weight="bold" fill="#6B7280">S</text>
<path d="M 164.3 656.0 L 110.0 686.0 L 110.0 716.0" fill="none" stroke="#9CA3AF" stroke-width="1.2"/>
<polygon points="0,-4 8,0 0,4" fill="#9CA3AF" transform="translate(110.0,716.0) rotate(90.0)"/>
<rect x="103.0" y="679.0" width="14" height="14" rx="3" fill="#FFFFFF" stroke="#9CA3AF" stroke-width="0.5"/>
<text x="110.0" y="689.0" text-anchor="middle" font-size="9" font-weight="bold" fill="#6B7280">S</text>
<path d="M 320.0 772.0 L 320.0 802.0 L 320.0 832.0" fill="none" stroke="#9CA3AF" stroke-width="1.2"/>
<polygon points="0,-4 8,0 0,4" fill="#9CA3AF" transform="translate(320.0,832.0) rotate(90.0)"/>
<rect x="313.0" y="795.0" width="14" height="14" rx="3" fill="#FFFFFF" stroke="#9CA3AF" stroke-width="0.5"/>
<text x="320.0" y="805.0" text-anchor="middle" font-size="9" font-weight="bold" fill="#6B7280">J</text>
<path d="M 845.0 192.0 L 845.0 222.0 L 845.0 252.0" fill="none" stroke="#9CA3AF" stroke-width="1.2"/>
<polygon points="0,-4 8,0 0,4" fill="#9CA3AF" transform="translate(845.0,252.0) rotate(90.0)"/>
<rect x="838.0" y="215.0" width="14" height="14" rx="3" fill="#FFFFFF" stroke="#9CA3AF" stroke-width="0.5"/>
<text x="845.0" y="225.0" text-anchor="middle" font-size="9" font-weight="bold" fill="#6B7280">W</text>
<path d="M 845.0 76.0 L 845.0 106.0 L 845.0 136.0" fill="none" stroke="#9CA3AF" stroke-width="1.2"/>
<polygon points="0,-4 8,0 0,4" fill="#9CA3AF" transform="translate(845.0,136.0) rotate(90.0)"/>
<rect x="838.0" y="99.0" width="14" height="14" rx="3" fill="#FFFFFF" stroke="#9CA3AF" stroke-width="0.5"/>
<text x="845.0" y="109.0" text-anchor="middle" font-size="9" font-weight="bold" fill="#6B7280">S</text>
<path d="M 845.0 308.0 L 845.0 338.0 L 845.0 368.0" fill="none" stroke="#9CA3AF" stroke-width="1.2"/>
<polygon points="0,-4 8,0 0,4" fill="#9CA3AF" transform="translate(845.0,368.0) rotate(90.0)"/>
<rect x="838.0" y="331.0" width="14" height="14" rx="3" fill="#FFFFFF" stroke="#9CA3AF" stroke-width="0.5"/>
<text x="845.0" y="341.0" text-anchor="middle" font-size="9" font-weight="bold" fill="#6B7280">W</text>
<path d="M 603.6 192.0 L 682.5 222.0 L 682.5 280.0 L 682.5 338.0 L 657.9 368.0" fill="none" stroke="#9CA3AF" stroke-width="1.2"/>
<polygon points="0,-4 8,0 0,4" fill="#9CA3AF" transform="translate(657.9,368.0) rotate(129.3)"/>
<rect x="675.5" y="273.0" width="14" height="14" rx="3" fill="#FFFFFF" stroke="#9CA3AF" stroke-width="0.5"/>
<text x="682.5" y="283.0" text-anchor="middle" font-size="9" font-weight="bold" fill="#6B7280">J</text>
<path d="M 530.0 76.0 L 530.0 106.0 L 530.0 136.0" fill="none" stroke="#9CA3AF" stroke-width="1.2"/>
<polygon points="0,-4 8,0 0,4" fill="#9CA3AF" transform="translate(530.0,136.0) rotate(90.0)"/>
<rect x="523.0" y="99.0" width="14" height="14" rx="3" fill="#FFFFFF" stroke="#9CA3AF" stroke-width="0.5"/>
<text x="530.0" y="109.0" text-anchor="middle" font-size="9" font-weight="bold" fill="#6B7280">S</text>
<path d="M 484.1 192.0 L 435.0 222.0 L 435.0 252.0" fill="none" stroke="#9CA3AF" stroke-width="1.2"/>
<polygon points="0,-4 8,0 0,4" fill="#9CA3AF" transform="translate(435.0,252.0) rotate(90.0)"/>
<rect x="428.0" y="215.0" width="14" height="14" rx="3" fill="#FFFFFF" stroke="#9CA3AF" stroke-width="0.5"/>
<text x="435.0" y="225.0" text-anchor="middle" font-size="9" font-weight="bold" fill="#6B7280">S</text>
<path d="M 485.7 308.0 L 540.0 338.0 L 589.1 368.0" fill="none" stroke="#9CA3AF" stroke-width="1.2"/>
<polygon points="0,-4 8,0 0,4" fill="#9CA3AF" transform="translate(589.1,368.0) rotate(31.4)"/>
<rect x="533.0" y="331.0" width="14" height="14" rx="3" fill="#FFFFFF" stroke="#9CA3AF" stroke-width="0.5"/>
<text x="540.0" y="341.0" text-anchor="middle" font-size="9" font-weight="bold" fill="#6B7280">J</text>
<path d="M 430.2 308.0 L 425.0 338.0 L 425.0 368.0" fill="none" stroke="#9CA3AF" stroke-width="1.2"/>
<polygon points="0,-4 8,0 0,4" fill="#9CA3AF" transform="translate(425.0,368.0) rotate(90.0)"/>
<rect x="418.0" y="331.0" width="14" height="14" rx="3" fill="#FFFFFF" stroke="#9CA3AF" stroke-width="0.5"/>
<text x="425.0" y="341.0" text-anchor="middle" font-size="9" font-weight="bold" fill="#6B7280">J</text>
<path d="M 320.0 888.0 L 320.0 918.0 L 320.0 948.0" fill="none" stroke="#9CA3AF" stroke-width="1.2"/>
<polygon points="0,-4 8,0 0,4" fill="#9CA3AF" transform="translate(320.0,948.0) rotate(90.0)"/>
<rect x="313.0" y="911.0" width="14" height="14" rx="3" fill="#FFFFFF" stroke="#9CA3AF" stroke-width="0.5"/>
<text x="320.0" y="921.0" text-anchor="middle" font-size="9" font-weight="bold" fill="#6B7280">J</text>
<g>
<rect x="125" y="20" width="180" height="56" rx="8" fill="#F3F4F6" stroke="#6B7280" stroke-width="1.5"/>
<text x="133" y="36" fill="#6B7280" font-size="11" font-weight="bold" font-family="monospace">P011</text>
<text x="297" y="36" fill="#6B7280" font-size="9" font-weight="bold" text-anchor="end">F</text>
<text x="133" y="52" fill="#374151" font-size="9">Financial reports for the</text>
<text x="133" y="64" fill="#374151" font-size="9">quarter ending December 2022 sh…</text>
</g>
<g>
<rect x="125" y="136" width="180" height="56" rx="8" fill="#FBF3E0" stroke="#D4842A" stroke-width="1.5"/>
<text x="133" y="152" fill="#D4842A" font-size="11" font-weight="bold" font-family="monospace">P012</text>
<text x="297" y="152" fill="#D4842A" font-size="9" font-weight="bold" text-anchor="end">M</text>
<text x="133" y="168" fill="#374151" font-size="9">The decrease in broadcasting</text>
<text x="133" y="180" fill="#374151" font-size="9">revenue in Q4 2022 was directly…</text>
</g>
<g>
<rect x="125" y="252" width="180" height="56" rx="8" fill="#FBF3E0" stroke="#D4842A" stroke-width="1.5"/>
<text x="133" y="268" fill="#D4842A" font-size="11" font-weight="bold" font-family="monospace">P010</text>
<text x="297" y="268" fill="#D4842A" font-size="9" font-weight="bold" text-anchor="end">M</text>
<text x="133" y="284" fill="#374151" font-size="9">Increased competition and the</text>
<text x="133" y="296" fill="#374151" font-size="9">importance of UEFA Champions Le…</text>
</g>
<g>
<rect x="125" y="368" width="180" height="56" rx="8" fill="#E5EEF1" stroke="#1A535C" stroke-width="1.5"/>
<text x="133" y="384" fill="#1A535C" font-size="11" font-weight="bold" font-family="monospace">P009</text>
<text x="297" y="384" fill="#1A535C" font-size="9" font-weight="bold" text-anchor="end">V</text>
<text x="133" y="400" fill="#374151" font-size="9">The Glazer-era strategy makes no</text>
<text x="133" y="412" fill="#374151" font-size="9">mention of on-pitch performance…</text>
</g>
<g>
<rect x="125" y="484" width="180" height="56" rx="8" fill="#FBF3E0" stroke="#D4842A" stroke-width="1.5"/>
<text x="133" y="500" fill="#D4842A" font-size="11" font-weight="bold" font-family="monospace">P015</text>
<text x="297" y="500" fill="#D4842A" font-size="9" font-weight="bold" text-anchor="end">M</text>
<text x="133" y="516" fill="#374151" font-size="9">Manchester United&apos;s on-pitch</text>
<text x="133" y="528" fill="#374151" font-size="9">performance has been negatively…</text>
</g>
<g>
<rect x="125" y="600" width="180" height="56" rx="8" fill="#F3F4F6" stroke="#6B7280" stroke-width="1.5"/>
<text x="133" y="616" fill="#6B7280" font-size="11" font-weight="bold" font-family="monospace">P013</text>
<text x="297" y="616" fill="#6B7280" font-size="9" font-weight="bold" text-anchor="end">F</text>
<text x="133" y="632" fill="#374151" font-size="9">The emergence of Manchester City</text>
<text x="133" y="644" fill="#374151" font-size="9">and Tottenham as part of the &apos;B…</text>
</g>
<g>
<rect x="20" y="716" width="180" height="56" rx="8" fill="#E5EEF1" stroke="#1A535C" stroke-width="1.5"/>
<text x="28" y="732" fill="#1A535C" font-size="11" font-weight="bold" font-family="monospace">P003</text>
<text x="192" y="732" fill="#1A535C" font-size="9" font-weight="bold" text-anchor="end">V</text>
<text x="28" y="748" fill="#374151" font-size="9">Manchester United&apos;s dominant</text>
<text x="28" y="760" fill="#374151" font-size="9">position has been significantly…</text>
</g>
<g>
<rect x="20" y="832" width="180" height="56" rx="8" fill="#F3F4F6" stroke="#6B7280" stroke-width="1.5"/>
<text x="28" y="848" fill="#6B7280" font-size="11" font-weight="bold" font-family="monospace">P004</text>
<text x="192" y="848" fill="#6B7280" font-size="9" font-weight="bold" text-anchor="end">F</text>
<text x="28" y="864" fill="#374151" font-size="9">In November 2022, Manchester</text>
<text x="28" y="876" fill="#374151" font-size="9">United&apos;s owners announced their…</text>
</g>
<g>
<rect x="20" y="948" width="180" height="56" rx="8" fill="#F3F4F6" stroke="#6B7280" stroke-width="1.5"/>
<text x="28" y="964" fill="#6B7280" font-size="11" font-weight="bold" font-family="monospace">P005</text>
<text x="192" y="964" fill="#6B7280" font-size="9" font-weight="bold" text-anchor="end">F</text>
<text x="28" y="980" fill="#374151" font-size="9">INEOS Football purchased a 25</text>
<text x="28" y="992" fill="#374151" font-size="9">per cent stake in Manchester Un…</text>
</g>
<g>
<rect x="230" y="716" width="180" height="56" rx="8" fill="#E5EEF1" stroke="#1A535C" stroke-width="1.5"/>
<text x="238" y="732" fill="#1A535C" font-size="11" font-weight="bold" font-family="monospace">P018</text>
<text x="402" y="732" fill="#1A535C" font-size="9" font-weight="bold" text-anchor="end">V</text>
<text x="238" y="748" fill="#374151" font-size="9">One of the strategic issues</text>
<text x="238" y="760" fill="#374151" font-size="9">faced by INEOS is increased com…</text>
</g>
<g>
<rect x="230" y="832" width="180" height="56" rx="8" fill="#E5EEF1" stroke="#1A535C" stroke-width="1.5"/>
<text x="238" y="848" fill="#1A535C" font-size="11" font-weight="bold" font-family="monospace">P079</text>
<text x="402" y="848" fill="#1A535C" font-size="9" font-weight="bold" text-anchor="end">V</text>
<text x="238" y="864" fill="#374151" font-size="9">INEOS will need a different</text>
<text x="238" y="876" fill="#374151" font-size="9">approach to re-establish Manche…</text>
</g>
<g>
<rect x="230" y="948" width="180" height="56" rx="8" fill="#E1F1E9" stroke="#2E7D5B" stroke-width="1.5"/>
<text x="238" y="964" fill="#2E7D5B" font-size="11" font-weight="bold" font-family="monospace">P080</text>
<text x="402" y="964" fill="#2E7D5B" font-size="9" font-weight="bold" text-anchor="end">P</text>
<text x="238" y="980" fill="#374151" font-size="9">INEOS should establish a</text>
<text x="238" y="992" fill="#374151" font-size="9">professional sporting managemen…</text>
</g>
<g>
<rect x="440" y="20" width="180" height="56" rx="8" fill="#F3F4F6" stroke="#6B7280" stroke-width="1.5"/>
<text x="448" y="36" fill="#6B7280" font-size="11" font-weight="bold" font-family="monospace">P057</text>
<text x="612" y="36" fill="#6B7280" font-size="9" font-weight="bold" text-anchor="end">F</text>
<text x="448" y="52" fill="#374151" font-size="9">Aggregate revenues in the</text>
<text x="448" y="64" fill="#374151" font-size="9">Women&apos;s Super League grew by 60…</text>
</g>
<g>
<rect x="440" y="136" width="180" height="56" rx="8" fill="#F3F4F6" stroke="#6B7280" stroke-width="1.5"/>
<text x="448" y="152" fill="#6B7280" font-size="11" font-weight="bold" font-family="monospace">P056</text>
<text x="612" y="152" fill="#6B7280" font-size="9" font-weight="bold" text-anchor="end">F</text>
<text x="448" y="168" fill="#374151" font-size="9">Women&apos;s football is growing</text>
<text x="448" y="180" fill="#374151" font-size="9">rapidly, and Manchester United …</text>
</g>
<g>
<rect x="345" y="252" width="180" height="56" rx="8" fill="#E5EEF1" stroke="#1A535C" stroke-width="1.5"/>
<text x="353" y="268" fill="#1A535C" font-size="11" font-weight="bold" font-family="monospace">P086</text>
<text x="517" y="268" fill="#1A535C" font-size="9" font-weight="bold" text-anchor="end">V</text>
<text x="353" y="284" fill="#374151" font-size="9">While revenues are comparatively</text>
<text x="353" y="296" fill="#374151" font-size="9">small in women&apos;s football, ther…</text>
</g>
<g>
<rect x="545" y="368" width="180" height="56" rx="8" fill="#E1F1E9" stroke="#2E7D5B" stroke-width="1.5"/>
<text x="553" y="384" fill="#2E7D5B" font-size="11" font-weight="bold" font-family="monospace">P085</text>
<text x="717" y="384" fill="#2E7D5B" font-size="9" font-weight="bold" text-anchor="end">P</text>
<text x="553" y="400" fill="#374151" font-size="9">The strategy should include</text>
<text x="553" y="412" fill="#374151" font-size="9">continued investment in the wom…</text>
</g>
<g>
<rect x="335" y="368" width="180" height="56" rx="8" fill="#E1F1E9" stroke="#2E7D5B" stroke-width="1.5"/>
<text x="343" y="384" fill="#2E7D5B" font-size="11" font-weight="bold" font-family="monospace">P087</text>
<text x="507" y="384" fill="#2E7D5B" font-size="9" font-weight="bold" text-anchor="end">P</text>
<text x="343" y="400" fill="#374151" font-size="9">Sponsorships and commercial</text>
<text x="343" y="412" fill="#374151" font-size="9">opportunities in women&apos;s footba…</text>
</g>
<g>
<rect x="755" y="20" width="180" height="56" rx="8" fill="#E5EEF1" stroke="#1A535C" stroke-width="1.5"/>
<text x="763" y="36" fill="#1A535C" font-size="11" font-weight="bold" font-family="monospace">P050</text>
<text x="927" y="36" fill="#1A535C" font-size="9" font-weight="bold" text-anchor="end">V</text>
<text x="763" y="52" fill="#374151" font-size="9">City Football Group, with</text>
<text x="763" y="64" fill="#374151" font-size="9">controlling stakes in Mancheste…</text>
</g>
<g>
<rect x="755" y="136" width="180" height="56" rx="8" fill="#FBF3E0" stroke="#D4842A" stroke-width="1.5"/>
<text x="763" y="152" fill="#D4842A" font-size="11" font-weight="bold" font-family="monospace">P048</text>
<text x="927" y="152" fill="#D4842A" font-size="9" font-weight="bold" text-anchor="end">M</text>
<text x="763" y="168" fill="#374151" font-size="9">Common reasons for multi-club</text>
<text x="763" y="180" fill="#374151" font-size="9">diversification include economi…</text>
</g>
<g>
<rect x="755" y="252" width="180" height="56" rx="8" fill="#FBF3E0" stroke="#D4842A" stroke-width="1.5"/>
<text x="763" y="268" fill="#D4842A" font-size="11" font-weight="bold" font-family="monospace">P089</text>
<text x="927" y="268" fill="#D4842A" font-size="9" font-weight="bold" text-anchor="end">M</text>
<text x="763" y="284" fill="#374151" font-size="9">Building a multi-club model may</text>
<text x="763" y="296" fill="#374151" font-size="9">offer Manchester United economi…</text>
</g>
<g>
<rect x="755" y="368" width="180" height="56" rx="8" fill="#E1F1E9" stroke="#2E7D5B" stroke-width="1.5"/>
<text x="763" y="384" fill="#2E7D5B" font-size="11" font-weight="bold" font-family="monospace">P090</text>
<text x="927" y="384" fill="#2E7D5B" font-size="9" font-weight="bold" text-anchor="end">P</text>
<text x="763" y="400" fill="#374151" font-size="9">INEOS would need to remain</text>
<text x="763" y="412" fill="#374151" font-size="9">attentive to regulatory changes…</text>
</g>
</g></svg>