<svg xmlns="http://www.w3.org/2000/svg" viewBox="0 0 620 320" font-family="Helvetica, Arial, sans-serif" font-size="11">
<rect width="620" height="320" fill="#FFFFFF"/>
<text x="310" y="20" font-size="13" font-weight="bold" text-anchor="middle">Edge-type composition per rung + human (stacked)</text>
<text x="310" y="36" font-size="10" text-anchor="middle" fill="#6B7280">Mean across cells per rung. S=Support, W=Warrant, J=Justification, E=Elaboration. Source: inferential-aggregates.csv.</text>
<line x1="60" y1="270" x2="490" y2="270" stroke="#E5E7EB" stroke-dasharray="2,2"/>
<text x="54" y="274" text-anchor="end" font-size="9" fill="#6B7280">0%</text>
<line x1="60" y1="215" x2="490" y2="215" stroke="#E5E7EB" stroke-dasharray="2,2"/>
<text x="54" y="219" text-anchor="end" font-size="9" fill="#6B7280">26%</text>
<line x1="60" y1="160" x2="490" y2="160" stroke="#E5E7EB" stroke-dasharray="2,2"/>
<text x="54" y="164" text-anchor="end" font-size="9" fill="#6B7280">53%</text>
<line x1="60" y1="105" x2="490" y2="105" stroke="#E5E7EB" stroke-dasharray="2,2"/>
<text x="54" y="109" text-anchor="end" font-size="9" fill="#6B7280">79%</text>
<line x1="60" y1="50" x2="490" y2="50" stroke="#E5E7EB" stroke-dasharray="2,2"/>
<text x="54" y="54" text-anchor="end" font-size="9" fill="#6B7280">105%</text>
<text x="95.8" y="290" text-anchor="middle" font-size="10" font-weight="bold">TMBA</text>
<rect x="60" y="147.0" width="71.6" height="123.0" fill="#6B7280" opacity="0.9"/>
<text x="95.8" y="211.5" text-anchor="middle" font-size="9" fill="#FFFFFF" font-weight="bold">59%</text>
<rect x="60" y="134.6" width="71.6" height="12.4" fill="#D4842A" opacity="0.9"/>
<rect x="60" y="88.0" width="71.6" height="46.5" fill="#2E7D5B" opacity="0.9"/>
<text x="95.8" y="114.3" text-anchor="middle" font-size="9" fill="#FFFFFF" font-weight="bold">22%</text>
<rect x="60" y="60.5" width="71.6" height="27.6" fill="#1A535C" opacity="0.9"/>
<text x="95.8" y="77.3" text-anchor="middle" font-size="9" fill="#FFFFFF" font-weight="bold">13%</text>
<text x="185.39999999999998" y="290" text-anchor="middle" font-size="10" font-weight="bold">E1</text>
<rect x="149.6" y="133.8" width="71.6" height="136.2" fill="#6B7280" opacity="0.9"/>
<text x="185.39999999999998" y="204.9" text-anchor="middle" font-size="9" fill="#FFFFFF" font-weight="bold">65%</text>
<rect x="149.6" y="119.7" width="71.6" height="14.1" fill="#D4842A" opacity="0.9"/>
<rect x="149.6" y="84.5" width="71.6" height="35.2" fill="#2E7D5B" opacity="0.9"/>
<text x="185.39999999999998" y="105.1" text-anchor="middle" font-size="9" fill="#FFFFFF" font-weight="bold">17%</text>
<rect x="149.6" y="60.5" width="71.6" height="24.0" fill="#1A535C" opacity="0.9"/>
<text x="185.39999999999998" y="75.5" text-anchor="middle" font-size="9" fill="#FFFFFF" font-weight="bold">11%</text>
<text x="275" y="290" text-anchor="middle" font-size="10" font-weight="bold">E2</text>
<rect x="239.2" y="128.4" width="71.6" height="141.6" fill="#6B7280" opacity="0.9"/>
<text x="275" y="202.2" text-anchor="middle" font-size="9" fill="#FFFFFF" font-weight="bold">68%</text>
<rect x="239.2" y="113.1" width="71.6" height="15.3" fill="#D4842A" opacity="0.9"/>
<rect x="239.2" y="77.9" width="71.6" height="35.3" fill="#2E7D5B" opacity="0.9"/>
<text x="275" y="98.5" text-anchor="middle" font-size="9" fill="#FFFFFF" font-weight="bold">17%</text>
<rect x="239.2" y="60.5" width="71.6" height="17.4" fill="#1A535C" opacity="0.9"/>
<text x="275" y="72.2" text-anchor="middle" font-size="9" fill="#FFFFFF" font-weight="bold">8%</text>
<text x="364.59999999999997" y="290" text-anchor="middle" font-size="10" font-weight="bold">E3</text>
<rect x="328.79999999999995" y="130.8" width="71.6" height="139.2" fill="#6B7280" opacity="0.9"/>
<text x="364.59999999999997" y="203.4" text-anchor="middle" font-size="9" fill="#FFFFFF" font-weight="bold">66%</text>
<rect x="328.79999999999995" y="111.3" width="71.6" height="19.5" fill="#D4842A" opacity="0.9"/>
<text x="364.59999999999997" y="124.1" text-anchor="middle" font-size="9" fill="#FFFFFF" font-weight="bold">9%</text>
<rect x="328.79999999999995" y="81.1" width="71.6" height="30.3" fill="#2E7D5B" opacity="0.9"/>
<text x="364.59999999999997" y="99.2" text-anchor="middle" font-size="9" fill="#FFFFFF" font-weight="bold">14%</text>
<rect x="328.79999999999995" y="60.5" width="71.6" height="20.6" fill="#1A535C" opacity="0.9"/>
<text x="364.59999999999997" y="73.8" text-anchor="middle" font-size="9" fill="#FFFFFF" font-weight="bold">10%</text>
<text x="454.2" y="290" text-anchor="middle" font-size="10" font-weight="bold">human</text>
<rect x="418.4" y="129.5" width="71.6" height="140.5" fill="#6B7280" opacity="0.9"/>
<text x="454.2" y="202.7" text-anchor="middle" font-size="9" fill="#FFFFFF" font-weight="bold">67%</text>
<rect x="418.4" y="113.7" width="71.6" height="15.8" fill="#D4842A" opacity="0.9"/>
<rect x="418.4" y="85.3" width="71.6" height="28.4" fill="#2E7D5B" opacity="0.9"/>
<text x="454.2" y="102.5" text-anchor="middle" font-size="9" fill="#FFFFFF" font-weight="bold">14%</text>
<rect x="418.4" y="60.5" width="71.6" height="24.8" fill="#1A535C" opacity="0.9"/>
<text x="454.2" y="75.9" text-anchor="middle" font-size="9" fill="#FFFFFF" font-weight="bold">12%</text>
<line x1="60" y1="270" x2="490" y2="270" stroke="#333"/>
<line x1="60" y1="50" x2="60" y2="270" stroke="#333"/>
<text x="504" y="50" font-size="10" font-weight="bold">Stack</text>
<rect x="504" y="57" width="12" height="12" fill="#6B7280"/>
<text x="520" y="66" font-size="10">S support</text>
<rect x="504" y="75" width="12" height="12" fill="#D4842A"/>
<text x="520" y="84" font-size="10">W warrant</text>
<rect x="504" y="93" width="12" height="12" fill="#2E7D5B"/>
<text x="520" y="102" font-size="10">J justification</text>
<rect x="504" y="111" width="12" height="12" fill="#1A535C"/>
<text x="520" y="120" font-size="10">E elaboration</text>
</svg>