<svg xmlns="http://www.w3.org/2000/svg" viewBox="0 0 620 320" font-family="Helvetica, Arial, sans-serif" font-size="11">
<rect width="620" height="320" fill="#FFFFFF"/>
<text x="310" y="20" font-size="13" font-weight="bold" text-anchor="middle">Claim-type composition per rung + human (stacked)</text>
<text x="310" y="36" font-size="10" text-anchor="middle" fill="#6B7280">Mean across cells per rung. F=Factual, M=Mechanism, V=Value, P=Prescriptive. Source: rung-aggregates.csv.</text>
<line x1="60" y1="270" x2="490" y2="270" stroke="#E5E7EB" stroke-dasharray="2,2"/>
<text x="54" y="274" text-anchor="end" font-size="9" fill="#6B7280">0%</text>
<line x1="60" y1="215" x2="490" y2="215" stroke="#E5E7EB" stroke-dasharray="2,2"/>
<text x="54" y="219" text-anchor="end" font-size="9" fill="#6B7280">26%</text>
<line x1="60" y1="160" x2="490" y2="160" stroke="#E5E7EB" stroke-dasharray="2,2"/>
<text x="54" y="164" text-anchor="end" font-size="9" fill="#6B7280">53%</text>
<line x1="60" y1="105" x2="490" y2="105" stroke="#E5E7EB" stroke-dasharray="2,2"/>
<text x="54" y="109" text-anchor="end" font-size="9" fill="#6B7280">79%</text>
<line x1="60" y1="50" x2="490" y2="50" stroke="#E5E7EB" stroke-dasharray="2,2"/>
<text x="54" y="54" text-anchor="end" font-size="9" fill="#6B7280">105%</text>
<text x="95.8" y="290" text-anchor="middle" font-size="10" font-weight="bold">TMBA</text>
<rect x="60" y="196.0" width="71.6" height="74.0" fill="#6B7280" opacity="0.9"/>
<text x="95.8" y="236.0" text-anchor="middle" font-size="9" fill="#FFFFFF" font-weight="bold">35%</text>
<rect x="60" y="166.2" width="71.6" height="29.8" fill="#D4842A" opacity="0.9"/>
<text x="95.8" y="184.1" text-anchor="middle" font-size="9" fill="#FFFFFF" font-weight="bold">14%</text>
<rect x="60" y="100.2" width="71.6" height="66.0" fill="#1A535C" opacity="0.9"/>
<text x="95.8" y="136.2" text-anchor="middle" font-size="9" fill="#FFFFFF" font-weight="bold">31%</text>
<rect x="60" y="60.5" width="71.6" height="39.8" fill="#2E7D5B" opacity="0.9"/>
<text x="95.8" y="83.4" text-anchor="middle" font-size="9" fill="#FFFFFF" font-weight="bold">19%</text>
<text x="185.39999999999998" y="290" text-anchor="middle" font-size="10" font-weight="bold">E1</text>
<rect x="149.6" y="190.1" width="71.6" height="79.9" fill="#6B7280" opacity="0.9"/>
<text x="185.39999999999998" y="233.0" text-anchor="middle" font-size="9" fill="#FFFFFF" font-weight="bold">38%</text>
<rect x="149.6" y="153.8" width="71.6" height="36.3" fill="#D4842A" opacity="0.9"/>
<text x="185.39999999999998" y="174.9" text-anchor="middle" font-size="9" fill="#FFFFFF" font-weight="bold">17%</text>
<rect x="149.6" y="87.4" width="71.6" height="66.5" fill="#1A535C" opacity="0.9"/>
<text x="185.39999999999998" y="123.6" text-anchor="middle" font-size="9" fill="#FFFFFF" font-weight="bold">32%</text>
<rect x="149.6" y="60.5" width="71.6" height="26.9" fill="#2E7D5B" opacity="0.9"/>
<text x="185.39999999999998" y="76.9" text-anchor="middle" font-size="9" fill="#FFFFFF" font-weight="bold">13%</text>
<text x="275" y="290" text-anchor="middle" font-size="10" font-weight="bold">E2</text>
<rect x="239.2" y="193.2" width="71.6" height="76.8" fill="#6B7280" opacity="0.9"/>
<text x="275" y="234.6" text-anchor="middle" font-size="9" fill="#FFFFFF" font-weight="bold">37%</text>
<rect x="239.2" y="151.0" width="71.6" height="42.2" fill="#D4842A" opacity="0.9"/>
<text x="275" y="175.1" text-anchor="middle" font-size="9" fill="#FFFFFF" font-weight="bold">20%</text>
<rect x="239.2" y="81.5" width="71.6" height="69.5" fill="#1A535C" opacity="0.9"/>
<text x="275" y="119.2" text-anchor="middle" font-size="9" fill="#FFFFFF" font-weight="bold">33%</text>
<rect x="239.2" y="60.5" width="71.6" height="21.0" fill="#2E7D5B" opacity="0.9"/>
<text x="275" y="74.0" text-anchor="middle" font-size="9" fill="#FFFFFF" font-weight="bold">10%</text>
<text x="364.59999999999997" y="290" text-anchor="middle" font-size="10" font-weight="bold">E3</text>
<rect x="328.79999999999995" y="188.0" width="71.6" height="82.0" fill="#6B7280" opacity="0.9"/>
<text x="364.59999999999997" y="232.0" text-anchor="middle" font-size="9" fill="#FFFFFF" font-weight="bold">39%</text>
<rect x="328.79999999999995" y="143.0" width="71.6" height="45.0" fill="#D4842A" opacity="0.9"/>
<text x="364.59999999999997" y="168.5" text-anchor="middle" font-size="9" fill="#FFFFFF" font-weight="bold">21%</text>
<rect x="328.79999999999995" y="79.0" width="71.6" height="63.9" fill="#1A535C" opacity="0.9"/>
<text x="364.59999999999997" y="114.0" text-anchor="middle" font-size="9" fill="#FFFFFF" font-weight="bold">31%</text>
<rect x="328.79999999999995" y="60.5" width="71.6" height="18.6" fill="#2E7D5B" opacity="0.9"/>
<text x="364.59999999999997" y="72.8" text-anchor="middle" font-size="9" fill="#FFFFFF" font-weight="bold">9%</text>
<text x="454.2" y="290" text-anchor="middle" font-size="10" font-weight="bold">human</text>
<rect x="418.4" y="184.5" width="71.6" height="85.5" fill="#6B7280" opacity="0.9"/>
<text x="454.2" y="230.3" text-anchor="middle" font-size="9" fill="#FFFFFF" font-weight="bold">41%</text>
<rect x="418.4" y="129.2" width="71.6" height="55.3" fill="#D4842A" opacity="0.9"/>
<text x="454.2" y="159.9" text-anchor="middle" font-size="9" fill="#FFFFFF" font-weight="bold">26%</text>
<rect x="418.4" y="79.6" width="71.6" height="49.6" fill="#1A535C" opacity="0.9"/>
<text x="454.2" y="107.4" text-anchor="middle" font-size="9" fill="#FFFFFF" font-weight="bold">24%</text>
<rect x="418.4" y="60.5" width="71.6" height="19.1" fill="#2E7D5B" opacity="0.9"/>
<text x="454.2" y="73.0" text-anchor="middle" font-size="9" fill="#FFFFFF" font-weight="bold">9%</text>
<line x1="60" y1="270" x2="490" y2="270" stroke="#333"/>
<line x1="60" y1="50" x2="60" y2="270" stroke="#333"/>
<text x="504" y="50" font-size="10" font-weight="bold">Stack</text>
<rect x="504" y="57" width="12" height="12" fill="#6B7280"/>
<text x="520" y="66" font-size="10">F factual</text>
<rect x="504" y="75" width="12" height="12" fill="#D4842A"/>
<text x="520" y="84" font-size="10">M mechanism</text>
<rect x="504" y="93" width="12" height="12" fill="#1A535C"/>
<text x="520" y="102" font-size="10">V value/eval</text>
<rect x="504" y="111" width="12" height="12" fill="#2E7D5B"/>
<text x="520" y="120" font-size="10">P prescriptive</text>
</svg>