<svg xmlns="http://www.w3.org/2000/svg" viewBox="0 0 620 320" font-family="Helvetica, Arial, sans-serif" font-size="11">
<rect width="620" height="320" fill="#FFFFFF"/>
<text x="310" y="20" font-size="13" font-weight="bold" text-anchor="middle">Argument-graph architecture per rung + human</text>
<text x="310" y="36" font-size="10" text-anchor="middle" fill="#6B7280">Mean across 25 cells per rung. component_count scaled ÷100 to share axis. Source: structural-v2-aggregates.csv.</text>
<line x1="60" y1="270" x2="490" y2="270" stroke="#E5E7EB" stroke-dasharray="2,2"/>
<text x="54" y="274" text-anchor="end" font-size="9" fill="#6B7280">0.00</text>
<line x1="60" y1="215" x2="490" y2="215" stroke="#E5E7EB" stroke-dasharray="2,2"/>
<text x="54" y="219" text-anchor="end" font-size="9" fill="#6B7280">0.07</text>
<line x1="60" y1="160" x2="490" y2="160" stroke="#E5E7EB" stroke-dasharray="2,2"/>
<text x="54" y="164" text-anchor="end" font-size="9" fill="#6B7280">0.14</text>
<line x1="60" y1="105" x2="490" y2="105" stroke="#E5E7EB" stroke-dasharray="2,2"/>
<text x="54" y="109" text-anchor="end" font-size="9" fill="#6B7280">0.21</text>
<line x1="60" y1="50" x2="490" y2="50" stroke="#E5E7EB" stroke-dasharray="2,2"/>
<text x="54" y="54" text-anchor="end" font-size="9" fill="#6B7280">0.27</text>
<text x="98.2" y="290" text-anchor="middle" font-size="10" font-weight="bold">TMBA</text>
<rect x="60" y="220.98741986971754" width="24.46666666666667" height="49.01258013028246" fill="#1f77b4" opacity="0.9"/>
<text x="72.23333333333333" y="217.98741986971754" font-size="8" text-anchor="middle" fill="#333">0.06</text>
<rect x="85.46666666666667" y="98.34224598930481" width="24.46666666666667" height="171.6577540106952" fill="#ff7f0e" opacity="0.9"/>
<text x="97.7" y="95.34224598930481" font-size="8" text-anchor="middle" fill="#333">0.21</text>
<text x="186.60000000000002" y="290" text-anchor="middle" font-size="10" font-weight="bold">E1</text>
<rect x="148.4" y="225.01238989862458" width="24.46666666666667" height="44.987610101375424" fill="#1f77b4" opacity="0.9"/>
<text x="160.63333333333333" y="222.01238989862458" font-size="8" text-anchor="middle" fill="#333">0.06</text>
<rect x="173.86666666666667" y="70" width="24.46666666666667" height="200" fill="#ff7f0e" opacity="0.9"/>
<text x="186.10000000000002" y="67" font-size="8" text-anchor="middle" fill="#333">0.25</text>
<text x="275" y="290" text-anchor="middle" font-size="10" font-weight="bold">E2</text>
<rect x="236.8" y="227.93575401543808" width="24.46666666666667" height="42.06424598456192" fill="#1f77b4" opacity="0.9"/>
<text x="249.03333333333336" y="224.93575401543808" font-size="8" text-anchor="middle" fill="#333">0.05</text>
<rect x="262.26666666666665" y="92.24598930481278" width="24.46666666666667" height="177.75401069518722" fill="#ff7f0e" opacity="0.9"/>
<text x="274.5" y="89.24598930481278" font-size="8" text-anchor="middle" fill="#333">0.22</text>
<text x="363.40000000000003" y="290" text-anchor="middle" font-size="10" font-weight="bold">E3</text>
<rect x="325.20000000000005" y="230.37220889947673" width="24.46666666666667" height="39.62779110052327" fill="#1f77b4" opacity="0.9"/>
<text x="337.4333333333334" y="227.37220889947673" font-size="8" text-anchor="middle" fill="#333">0.05</text>
<rect x="350.66666666666674" y="104.86631016042776" width="24.46666666666667" height="165.13368983957224" fill="#ff7f0e" opacity="0.9"/>
<text x="362.9000000000001" y="101.86631016042776" font-size="8" text-anchor="middle" fill="#333">0.21</text>
<text x="451.8" y="290" text-anchor="middle" font-size="10" font-weight="bold">human</text>
<rect x="413.6" y="251.1168346582165" width="24.46666666666667" height="18.883165341783496" fill="#1f77b4" opacity="0.9"/>
<text x="425.83333333333337" y="248.1168346582165" font-size="8" text-anchor="middle" fill="#333">0.02</text>
<rect x="439.0666666666667" y="197.1657754010695" width="24.46666666666667" height="72.83422459893049" fill="#ff7f0e" opacity="0.9"/>
<text x="451.30000000000007" y="194.1657754010695" font-size="8" text-anchor="middle" fill="#333">0.09</text>
<line x1="60" y1="270" x2="490" y2="270" stroke="#333"/>
<line x1="60" y1="50" x2="60" y2="270" stroke="#333"/>
<text x="504" y="50" font-size="10" font-weight="bold">Series</text>
<rect x="504" y="57" width="12" height="12" fill="#1f77b4"/>
<text x="520" y="66" font-size="10">orphan_rate</text>
<rect x="504" y="75" width="12" height="12" fill="#ff7f0e"/>
<text x="520" y="84" font-size="10">component_count ÷100</text>
<rect x="504" y="93" width="12" height="12" fill="#2ca02c"/>
<text x="520" y="102" font-size="10">mean_depth</text>
</svg>