<svg xmlns="http://www.w3.org/2000/svg" viewBox="0 0 620 320" font-family="Helvetica, Arial, sans-serif" font-size="11">
<rect width="620" height="320" fill="#FFFFFF"/>
<text x="310" y="20" font-size="13" font-weight="bold" text-anchor="middle">Citation validity — does the cited source actually support the claim? (stacked)</text>
<text x="310" y="36" font-size="10" text-anchor="middle" fill="#6B7280">AI rungs n=50 each; Human n=50. Source: source-validation-aggregates.csv.</text>
<line x1="60" y1="270" x2="490" y2="270" stroke="#E5E7EB" stroke-dasharray="2,2"/>
<text x="54" y="274" text-anchor="end" font-size="9" fill="#6B7280">0%</text>
<line x1="60" y1="215" x2="490" y2="215" stroke="#E5E7EB" stroke-dasharray="2,2"/>
<text x="54" y="219" text-anchor="end" font-size="9" fill="#6B7280">26%</text>
<line x1="60" y1="160" x2="490" y2="160" stroke="#E5E7EB" stroke-dasharray="2,2"/>
<text x="54" y="164" text-anchor="end" font-size="9" fill="#6B7280">53%</text>
<line x1="60" y1="105" x2="490" y2="105" stroke="#E5E7EB" stroke-dasharray="2,2"/>
<text x="54" y="109" text-anchor="end" font-size="9" fill="#6B7280">79%</text>
<line x1="60" y1="50" x2="490" y2="50" stroke="#E5E7EB" stroke-dasharray="2,2"/>
<text x="54" y="54" text-anchor="end" font-size="9" fill="#6B7280">105%</text>
<text x="95.8" y="290" text-anchor="middle" font-size="10" font-weight="bold">TMBA</text>
<rect x="60" y="169.4" width="71.6" height="100.6" fill="#2E7D5B" opacity="0.9"/>
<text x="95.8" y="222.7" text-anchor="middle" font-size="9" fill="#FFFFFF" font-weight="bold">48%</text>
<rect x="60" y="64.7" width="71.6" height="104.8" fill="#D4842A" opacity="0.9"/>
<text x="95.8" y="120.0" text-anchor="middle" font-size="9" fill="#FFFFFF" font-weight="bold">50%</text>
<rect x="60" y="60.5" width="71.6" height="4.2" fill="#6B7280" opacity="0.9"/>
<text x="185.39999999999998" y="290" text-anchor="middle" font-size="10" font-weight="bold">E1</text>
<rect x="149.6" y="135.9" width="71.6" height="134.1" fill="#2E7D5B" opacity="0.9"/>
<text x="185.39999999999998" y="206.0" text-anchor="middle" font-size="9" fill="#FFFFFF" font-weight="bold">64%</text>
<rect x="149.6" y="60.5" width="71.6" height="75.4" fill="#D4842A" opacity="0.9"/>
<text x="185.39999999999998" y="101.2" text-anchor="middle" font-size="9" fill="#FFFFFF" font-weight="bold">36%</text>
<text x="275" y="290" text-anchor="middle" font-size="10" font-weight="bold">E2</text>
<rect x="239.2" y="135.9" width="71.6" height="134.1" fill="#2E7D5B" opacity="0.9"/>
<text x="275" y="206.0" text-anchor="middle" font-size="9" fill="#FFFFFF" font-weight="bold">64%</text>
<rect x="239.2" y="73.0" width="71.6" height="62.9" fill="#D4842A" opacity="0.9"/>
<text x="275" y="107.5" text-anchor="middle" font-size="9" fill="#FFFFFF" font-weight="bold">30%</text>
<rect x="239.2" y="60.5" width="71.6" height="12.6" fill="#6B7280" opacity="0.9"/>
<text x="364.59999999999997" y="290" text-anchor="middle" font-size="10" font-weight="bold">E3</text>
<rect x="328.79999999999995" y="123.3" width="71.6" height="146.7" fill="#2E7D5B" opacity="0.9"/>
<text x="364.59999999999997" y="199.7" text-anchor="middle" font-size="9" fill="#FFFFFF" font-weight="bold">70%</text>
<rect x="328.79999999999995" y="81.4" width="71.6" height="41.9" fill="#D4842A" opacity="0.9"/>
<text x="364.59999999999997" y="105.4" text-anchor="middle" font-size="9" fill="#FFFFFF" font-weight="bold">20%</text>
<rect x="328.79999999999995" y="60.5" width="71.6" height="21.0" fill="#6B7280" opacity="0.9"/>
<text x="364.59999999999997" y="74.0" text-anchor="middle" font-size="9" fill="#FFFFFF" font-weight="bold">10%</text>
<text x="454.2" y="290" text-anchor="middle" font-size="10" font-weight="bold">Human</text>
<rect x="418.4" y="240.1" width="71.6" height="29.9" fill="#2E7D5B" opacity="0.9"/>
<text x="454.2" y="258.0" text-anchor="middle" font-size="9" fill="#FFFFFF" font-weight="bold">14%</text>
<rect x="418.4" y="146.0" width="71.6" height="94.1" fill="#D4842A" opacity="0.9"/>
<text x="454.2" y="196.0" text-anchor="middle" font-size="9" fill="#FFFFFF" font-weight="bold">45%</text>
<rect x="418.4" y="60.5" width="71.6" height="85.5" fill="#6B7280" opacity="0.9"/>
<text x="454.2" y="106.2" text-anchor="middle" font-size="9" fill="#FFFFFF" font-weight="bold">41%</text>
<line x1="60" y1="270" x2="490" y2="270" stroke="#333"/>
<line x1="60" y1="50" x2="60" y2="270" stroke="#333"/>
<text x="504" y="50" font-size="10" font-weight="bold">Stack</text>
<rect x="504" y="57" width="12" height="12" fill="#2E7D5B"/>
<text x="520" y="66" font-size="10">REAL + SUPPORTS</text>
<rect x="504" y="75" width="12" height="12" fill="#D4842A"/>
<text x="520" y="84" font-size="10">REAL but NON-SUPPORTING</text>
<rect x="504" y="93" width="12" height="12" fill="#6B7280"/>
<text x="520" y="102" font-size="10">unverifiable</text>
</svg>