<svg xmlns="http://www.w3.org/2000/svg" viewBox="0 0 620 320" font-family="Helvetica, Arial, sans-serif" font-size="11">
<rect width="620" height="320" fill="#FFFFFF"/>
<text x="310" y="20" font-size="13" font-weight="bold" text-anchor="middle">Citation rate per rung + human — strict (v5.3) vs lenient (paragraph-marker)</text>
<text x="310" y="36" font-size="10" text-anchor="middle" fill="#6B7280">Gap = detectability delta. Source: rung-aggregates.csv. Lenient is missing for human (regex not applied to that set).</text>
<line x1="60" y1="270" x2="490" y2="270" stroke="#E5E7EB" stroke-dasharray="2,2"/>
<text x="54" y="274" text-anchor="end" font-size="9" fill="#6B7280">0.00</text>
<line x1="60" y1="215" x2="490" y2="215" stroke="#E5E7EB" stroke-dasharray="2,2"/>
<text x="54" y="219" text-anchor="end" font-size="9" fill="#6B7280">0.17</text>
<line x1="60" y1="160" x2="490" y2="160" stroke="#E5E7EB" stroke-dasharray="2,2"/>
<text x="54" y="164" text-anchor="end" font-size="9" fill="#6B7280">0.34</text>
<line x1="60" y1="104.99999999999997" x2="490" y2="104.99999999999997" stroke="#E5E7EB" stroke-dasharray="2,2"/>
<text x="54" y="108.99999999999997" text-anchor="end" font-size="9" fill="#6B7280">0.52</text>
<line x1="60" y1="50" x2="490" y2="50" stroke="#E5E7EB" stroke-dasharray="2,2"/>
<text x="54" y="54" text-anchor="end" font-size="9" fill="#6B7280">0.69</text>
<text x="98.2" y="290" text-anchor="middle" font-size="10" font-weight="bold">TMBA</text>
<rect x="60" y="261.23676739957915" width="37.2" height="8.76323260042085" fill="#1A535C" opacity="0.9"/>
<text x="78.6" y="258.23676739957915" font-size="8" text-anchor="middle" fill="#333">0.03</text>
<rect x="98.2" y="173.14473736985772" width="37.2" height="96.85526263014228" fill="#9CA3AF" opacity="0.9"/>
<text x="116.80000000000001" y="170.14473736985772" font-size="8" text-anchor="middle" fill="#333">0.30</text>
<text x="186.60000000000002" y="290" text-anchor="middle" font-size="10" font-weight="bold">E1</text>
<rect x="148.4" y="247.7757479040263" width="37.2" height="22.224252095973696" fill="#1A535C" opacity="0.9"/>
<text x="167" y="244.7757479040263" font-size="8" text-anchor="middle" fill="#333">0.07</text>
<rect x="186.60000000000002" y="176.3701155639978" width="37.2" height="93.62988443600219" fill="#9CA3AF" opacity="0.9"/>
<text x="205.20000000000002" y="173.3701155639978" font-size="8" text-anchor="middle" fill="#333">0.29</text>
<text x="275" y="290" text-anchor="middle" font-size="10" font-weight="bold">E2</text>
<rect x="236.8" y="247.32453507557443" width="37.2" height="22.67546492442557" fill="#1A535C" opacity="0.9"/>
<text x="255.4" y="244.32453507557443" font-size="8" text-anchor="middle" fill="#333">0.07</text>
<rect x="275" y="170.60994354700586" width="37.2" height="99.39005645299414" fill="#9CA3AF" opacity="0.9"/>
<text x="293.6" y="167.60994354700586" font-size="8" text-anchor="middle" fill="#333">0.31</text>
<text x="363.40000000000003" y="290" text-anchor="middle" font-size="10" font-weight="bold">E3</text>
<rect x="325.20000000000005" y="249.43592865811092" width="37.2" height="20.564071341889075" fill="#1A535C" opacity="0.9"/>
<text x="343.80000000000007" y="246.43592865811092" font-size="8" text-anchor="middle" fill="#333">0.06</text>
<rect x="363.40000000000003" y="163.69580135577985" width="37.2" height="106.30419864422015" fill="#9CA3AF" opacity="0.9"/>
<text x="382.00000000000006" y="160.69580135577985" font-size="8" text-anchor="middle" fill="#333">0.33</text>
<text x="451.8" y="290" text-anchor="middle" font-size="10" font-weight="bold">human</text>
<rect x="413.6" y="216.52022155589572" width="37.2" height="53.479778444104284" fill="#1A535C" opacity="0.9"/>
<text x="432.20000000000005" y="213.52022155589572" font-size="8" text-anchor="middle" fill="#333">0.17</text>
<rect x="451.8" y="70" width="37.2" height="200" fill="#9CA3AF" opacity="0.9"/>
<text x="470.40000000000003" y="67" font-size="8" text-anchor="middle" fill="#333">0.63</text>
<line x1="60" y1="270" x2="490" y2="270" stroke="#333"/>
<line x1="60" y1="50" x2="60" y2="270" stroke="#333"/>
<text x="504" y="50" font-size="10" font-weight="bold">Series</text>
<rect x="504" y="57" width="12" height="12" fill="#1A535C"/>
<text x="520" y="66" font-size="10">strict (v5.3 Ext)</text>
<rect x="504" y="75" width="12" height="12" fill="#9CA3AF"/>
<text x="520" y="84" font-size="10">lenient (paragraph)</text>
</svg>